<?xml version="1.0" encoding="UTF-8" standalone="no"?>
<svg
   xmlns:dc="http://purl.org/dc/elements/1.1/"
   xmlns:cc="http://creativecommons.org/ns#"
   xmlns:rdf="http://www.w3.org/1999/02/22-rdf-syntax-ns#"
   xmlns:svg="http://www.w3.org/2000/svg"
   xmlns="http://www.w3.org/2000/svg"
   xmlns:sodipodi="http://sodipodi.sourceforge.net/DTD/sodipodi-0.dtd"
   xmlns:inkscape="http://www.inkscape.org/namespaces/inkscape"
   viewBox="0 0 240.61 44.228585"
   height="44.228584"
   width="240.61"
   xml:space="preserve"
   id="svg2"
   version="1.1"
   inkscape:version="0.91 r13725"
   sodipodi:docname="cray.svg"><sodipodi:namedview
     pagecolor="#ffffff"
     bordercolor="#666666"
     borderopacity="1"
     objecttolerance="10"
     gridtolerance="10"
     guidetolerance="10"
     inkscape:pageopacity="0"
     inkscape:pageshadow="2"
     inkscape:window-width="640"
     inkscape:window-height="480"
     id="namedview4244"
     showgrid="false"
     fit-margin-top="0"
     fit-margin-left="0"
     fit-margin-right="0"
     fit-margin-bottom="0"
     inkscape:zoom="1.5046558"
     inkscape:cx="191.40589"
     inkscape:cy="59.619999"
     inkscape:current-layer="svg2" /><metadata
     id="metadata8"><rdf:RDF><cc:Work
         rdf:about=""><dc:format>image/svg+xml</dc:format><dc:type
           rdf:resource="http://purl.org/dc/dcmitype/StillImage" /><dc:title></dc:title></cc:Work></rdf:RDF></metadata><defs
     id="defs6" /><g
     transform="matrix(0.49458568,0,0,-0.49458568,0,44.228584)"
     id="g10"><g
       transform="scale(0.1,0.1)"
       id="g12"><path
         id="path14"
         style="fill:#214e8d;fill-opacity:1;fill-rule:nonzero;stroke:none"
         d="m 4797.56,807.844 c 0,7.976 2.85,14.98 8.55,21.023 5.67,6.051 13.11,9.074 22.28,9.074 4.26,0 8.71,-1.203 13.36,-3.589 4.65,-2.387 8.47,-5.977 11.43,-10.778 2.95,-4.789 4.44,-10.027 4.44,-15.73 0,-8.262 -2.96,-15.332 -8.85,-21.223 -5.87,-5.879 -12.93,-8.824 -21.16,-8.824 -8.26,0 -15.34,2.945 -21.22,8.824 -5.89,5.891 -8.83,12.961 -8.83,21.223 z m 56.35,-26.391 c 7.31,7.313 10.97,16.11 10.97,26.391 0,10.078 -3.6,18.836 -10.8,26.25 -7.21,7.414 -16.39,11.121 -27.54,11.121 -4.97,0 -10.36,-1.391 -16.14,-4.149 -5.81,-2.769 -10.62,-7.195 -14.48,-13.234 -3.84,-6.074 -5.77,-12.73 -5.77,-19.988 0,-10.301 3.64,-19.106 10.92,-26.406 7.29,-7.305 16.1,-10.95 26.45,-10.95 10.27,0 19.07,3.645 26.39,10.965"
         inkscape:connector-curvature="0" /><path
         id="path16"
         style="fill:#214e8d;fill-opacity:1;fill-rule:nonzero;stroke:none"
         d="m 4825.62,810.414 -6.54,0 0,10.801 7.36,0 c 2.76,0 4.83,-0.453 6.2,-1.32 1.36,-0.891 2.04,-2.188 2.04,-3.946 0,-1.953 -0.68,-3.359 -2.07,-4.226 -1.38,-0.868 -3.72,-1.309 -6.99,-1.309 z m 10.04,-22.519 9.9,0 -4.64,7.957 c -2.08,3.515 -3.6,5.789 -4.55,6.855 -0.95,1.063 -2.25,1.883 -3.88,2.512 3.58,0.644 6.26,1.883 8.02,3.746 1.78,1.851 2.66,4.316 2.66,7.367 0,3.156 -1.06,5.813 -3.17,7.984 -2.1,2.145 -5.5,3.235 -10.15,3.235 l -18.78,0 0,-39.656 8.01,0 0,16.238 2.1,0 c 2.43,0 4.41,-0.695 5.92,-2.059 1.52,-1.39 3.25,-3.988 5.25,-7.785 l 3.31,-6.394"
         inkscape:connector-curvature="0" /><path
         id="path18"
         style="fill:#214e8d;fill-opacity:1;fill-rule:nonzero;stroke:none"
         d="m 269.883,718.191 767.897,0.063 c 43.72,0 79.12,35.469 79.12,79.129 0,43.73 -35.4,79.121 -79.12,79.121 L 269.883,876.445 C 120.879,876.445 0,755.637 0,606.492 0,457.422 120.879,336.555 269.883,336.555 l 767.897,0 c 43.72,0 79.12,35.398 79.12,79.058 0,43.723 -35.4,79.133 -79.12,79.133 l -767.897,0.059 c -61.695,0 -104.629,50 -104.629,111.687 0,61.692 42.934,111.699 104.629,111.699"
         inkscape:connector-curvature="0" /><path
         id="path20"
         style="fill:#214e8d;fill-opacity:1;fill-rule:nonzero;stroke:none"
         d="m 4770.18,797.91 c 0,44.192 -35.73,79.922 -79.84,79.922 -10.32,0 -20.22,-1.992 -29.21,-5.488 l -536.85,-195.11 -536.85,195.11 c -9.05,3.496 -18.89,5.488 -29.19,5.488 -44.12,0 -79.93,-35.73 -79.93,-79.922 0,-33.293 20.35,-61.816 49.27,-73.847 l 518.24,-189.954 0.72,-117.898 c 0,-44.188 33.61,-79.91 77.74,-79.91 44.12,0 79.86,35.722 79.86,79.91 l -1.39,117.898 518.09,189.954 c 29.01,12.031 49.34,40.554 49.34,73.847"
         inkscape:connector-curvature="0" /><path
         id="path22"
         style="fill:#214e8d;fill-opacity:1;fill-rule:nonzero;stroke:none"
         d="m 2060.23,618.313 -712.94,0 -0.14,99.277 713.08,0 c 27.41,0 49.67,-22.246 49.67,-49.668 0,-27.402 -22.26,-49.609 -49.67,-49.609 z m 199.6,67.183 c 0,105.41 -85.47,190.813 -190.82,190.813 l -800.85,0 c -41.61,0.078 -79,-32.832 -79,-67.957 l 0.8,-392.141 c 0,-44.188 33.55,-79.91 77.67,-79.91 44.12,0 79.92,35.722 79.92,79.91 l 0,43.262 695.11,0 90.55,-95.711 c 14.66,-16.836 36.26,-27.461 60.31,-27.461 44.11,0 79.92,35.722 79.92,79.91 0,19.551 -7.08,37.512 -18.77,51.379 l -66.97,68.504 c 43.98,34.929 72.13,88.894 72.13,149.402"
         inkscape:connector-curvature="0" /><path
         id="path24"
         style="fill:#214e8d;fill-opacity:1;fill-rule:nonzero;stroke:none"
         d="m 2817.16,599.961 171.2,118.43 c 21.93,15.386 45.97,19.746 72.32,2.175 L 3234.07,599.961 Z M 2931.23,867.59 2367.75,478.816 c -18.49,-14.586 -30.38,-37.246 -30.38,-62.605 0,-44.188 35.8,-79.91 79.92,-79.91 19.42,0 37.12,6.922 50.99,18.347 l 175.56,122.395 763.54,0 175.3,-123.117 c 13.72,-11.028 31.17,-17.625 50.13,-17.625 44.13,0 79.86,35.722 79.86,79.91 0,26.277 -12.68,49.668 -32.38,64.199 l -560.35,389.356 c -35.15,28.547 -127.22,37.324 -188.71,-2.176"
         inkscape:connector-curvature="0" /><path
         id="path26"
         style="fill:#214e8d;fill-opacity:1;fill-rule:nonzero;stroke:none"
         d="m 1442.7,125 0,29.805 -130.6,0 0,-151.19953 134.2,0 0,30.39843 -95,0 0,32.4024 68.4,0 0,29.7929 -68.4,0 0,28.8008 91.4,0"
         inkscape:connector-curvature="0" /><path
         id="path28"
         style="fill:#214e8d;fill-opacity:1;fill-rule:nonzero;stroke:none"
         d="m 4123.48,107.207 c 0,-10.6054 -4,-16.4062 -19,-16.4062 l -39.59,0 0,31.8042 39.8,0 c 14.59,0 18.79,-6.003 18.79,-15.398 z m -97.79,47.598 0,-151.19953 39.2,0 0,55.79683 46.19,0 c 35.21,0 50.41,19.6016 50.41,45.9957 0,29.407 -15.41,49.407 -54.61,49.407 l -81.19,0"
         inkscape:connector-curvature="0" /><path
         id="path30"
         style="fill:#214e8d;fill-opacity:1;fill-rule:nonzero;stroke:none"
         d="m 4681.88,3.60547 0,63.20313 57.4,87.9964 -41.21,0 -34,-55.6058 -36.19,55.6058 -44.61,0 59.41,-87.598 0,-63.60153 39.2,0"
         inkscape:connector-curvature="0" /><path
         id="path32"
         style="fill:#214e8d;fill-opacity:1;fill-rule:nonzero;stroke:none"
         d="m 1167.92,122.605 39.79,0 c 14.6,0 18.8,-6.003 18.8,-15.398 0,-10.6054 -4,-16.4062 -19,-16.4062 l -39.59,0 z m -39.2,-118.99953 39.2,0 0,55.79683 46.2,0 c 35.19,0 50.39,19.6016 50.39,45.9957 0,29.407 -15.39,49.407 -54.6,49.407 l -81.19,0 0,-151.19953"
         inkscape:connector-curvature="0" /><path
         id="path34"
         style="fill:#214e8d;fill-opacity:1;fill-rule:nonzero;stroke:none"
         d="m 4260.28,119.004 20.58,-57.9962 -41.19,0 z m -79.01,-115.39853 37.99,0 10,28.20313 62.21,0 10,-28.20313 41.41,0 -57.6,151.19953 -46.82,0 -57.19,-151.19953"
         inkscape:connector-curvature="0" /><path
         id="path36"
         style="fill:#214e8d;fill-opacity:1;fill-rule:nonzero;stroke:none"
         d="m 4535.98,3.60547 0,151.19953 -36.8,0 1.39,-101.1995 -60.8,101.1995 -49.59,0 0,-151.19953 36.8,0 -1.6,106.79253 64.8,-106.79253 45.8,0"
         inkscape:connector-curvature="0" /><path
         id="path38"
         style="fill:#214e8d;fill-opacity:1;fill-rule:nonzero;stroke:none"
         d="m 1776.7,123.605 c 17.61,0 28.61,-8 35.4,-24.8042 l 32.41,19.6052 c -12.01,23.403 -31.8,39.199 -68.4,39.199 -47,0 -79.01,-33.203 -79.01,-78.4058 0,-45.1953 27.81,-79.1992 80,-79.1992 37.61,0 57.41,18.0078 70,40.6055 l -33.39,19.7929 c -6.41,-15.1953 -18.4,-26.1992 -36.61,-26.1992 -23.39,0 -39.39,15.6055 -39.39,45.2031 0,29.3987 15.6,44.2027 38.99,44.2027"
         inkscape:connector-curvature="0" /><path
         id="path40"
         style="fill:#214e8d;fill-opacity:1;fill-rule:nonzero;stroke:none"
         d="m 408.621,3.60547 0,151.19953 -39.195,0 0,-57.0003 -70.203,0 0,57.0003 -39.2,0 0,-151.19953 39.2,0 0,62.40233 70.203,0 0,-62.40233 39.195,0"
         inkscape:connector-curvature="0" /><path
         id="path42"
         style="fill:#214e8d;fill-opacity:1;fill-rule:nonzero;stroke:none"
         d="m 800.719,31.1992 c -23.602,0 -40.602,8.6055 -51.203,21.0078 L 723.715,29.1992 C 740.117,11.4063 763.316,0 801.316,0 c 46.403,0 67.801,16.1992 67.801,49.1992 0,36.6016 -34,44.8047 -65.199,48.6055 -28.801,3.3943 -37,5.6013 -37,15.8003 0,9.598 8.199,13.602 29,13.602 23.801,0 37.797,-9.805 44.602,-18.602 l 24.199,22.997 c -15.801,16.804 -36.203,26.003 -70.203,26.003 -39.2,0 -65.2,-15 -65.2,-47.402 0,-37.8007 36.204,-44.1952 66,-48.3944 27.403,-3.8008 35.204,-5.6094 35.204,-16.4102 0,-9.7929 -8.403,-14.1992 -29.801,-14.1992"
         inkscape:connector-curvature="0" /><path
         id="path44"
         style="fill:#214e8d;fill-opacity:1;fill-rule:nonzero;stroke:none"
         d="m 1966.8,34.6016 c -24.8,0 -41.2,15.2031 -41.2,44.8007 0,29.3987 16.6,44.3987 40.8,44.3987 24.2,0 41.2,-15 41.2,-44.3987 0,-29.0039 -16.2,-44.8007 -40.8,-44.8007 z m -0.2,123.0034 C 1922,157.605 1885,124.402 1885,79.1992 1885,34.0039 1916.6,0 1965.6,0 c 49.4,0 82.6,34.8047 82.6,80.3984 0,47.0036 -37,77.2066 -81.6,77.2066"
         inkscape:connector-curvature="0" /><path
         id="path46"
         style="fill:#214e8d;fill-opacity:1;fill-rule:nonzero;stroke:none"
         d="m 921.516,154.805 0,-89.0042 C 921.516,22.0039 946.516,0 993.711,0 c 44.209,0 72.399,19.8047 72.399,65.8008 l 0,89.0042 -39.2,0 0,-86.7972 c 0,-24.0039 -7.2,-33.4062 -33,-33.4062 -26.195,0 -33.195,9.4023 -33.195,33.4062 l 0,86.7972 -39.199,0"
         inkscape:connector-curvature="0" /><path
         id="path48"
         style="fill:#214e8d;fill-opacity:1;fill-rule:nonzero;stroke:none"
         d="m 600.316,125 0,29.805 -130.593,0 0,-151.19953 134.199,0 0,30.39843 -95,0 0,32.4024 68.398,0 0,29.7929 -68.398,0 0,28.8008 91.394,0"
         inkscape:connector-curvature="0" /><path
         id="path50"
         style="fill:#214e8d;fill-opacity:1;fill-rule:nonzero;stroke:none"
         d="m 2278.89,3.60547 0,151.19953 -53.4,0 -36.19,-99.1995 -35.8,99.1995 -53.01,0 0,-151.19953 35.22,0 0,101.39453 38.4,-101.39453 27.79,0 38.81,101.39453 0,-101.39453 38.18,0"
         inkscape:connector-curvature="0" /><path
         id="path52"
         style="fill:#214e8d;fill-opacity:1;fill-rule:nonzero;stroke:none"
         d="m 166.531,3.60547 0,119.99953 46.598,0 0,31.2 -135.0001,0 0,-31.2 49.2071,0 0,-119.99953 39.195,0"
         inkscape:connector-curvature="0" /><path
         id="path54"
         style="fill:#214e8d;fill-opacity:1;fill-rule:nonzero;stroke:none"
         d="m 1588.71,89.4023 -42.8,0 0,33.2027 43,0 c 15.2,0 21.2,-4.8 21.2,-15.601 0,-11.2032 -5.8,-17.6017 -21.4,-17.6017 z M 1648.91,110 c 0,29.004 -17.2,44.805 -57.2,44.805 l -85,0 0,-151.19953 39.2,0 0,54.40233 34.2,0 c 19,0 26.4,-6.1992 27,-24.0039 0.8,-19.1992 1.8,-25.80077 3,-30.39843 l 40,0 0,1.39453 c -1.6,1.40625 -2.81,5.6055 -3.6,12.207 -1.6,13.3985 -1.6,29.3946 -5.8,40.5977 -2.6,6.7969 -10.2,12.5937 -19,14.8008 14.8,4.3984 27.2,14.2031 27.2,37.3945"
         inkscape:connector-curvature="0" /><path
         id="path56"
         style="fill:#214e8d;fill-opacity:1;fill-rule:nonzero;stroke:none"
         d="m 2527.41,154.805 0,-89.0042 C 2527.41,22.0039 2552.41,0 2599.59,0 2643.79,0 2672,19.8047 2672,65.8008 l 0,89.0042 -39.2,0 0,-86.7972 c 0,-24.0039 -7.19,-33.4062 -32.99,-33.4062 -26.21,0 -33.2,9.4023 -33.2,33.4062 l 0,86.7972 -39.2,0"
         inkscape:connector-curvature="0" /><path
         id="path58"
         style="fill:#214e8d;fill-opacity:1;fill-rule:nonzero;stroke:none"
         d="m 2806.29,3.60547 0,119.99953 46.61,0 0,31.2 -135,0 0,-31.2 49.19,0 0,-119.99953 39.2,0"
         inkscape:connector-curvature="0" /><path
         id="path60"
         style="fill:#214e8d;fill-opacity:1;fill-rule:nonzero;stroke:none"
         d="m 3181.39,89.4023 -42.79,0 0,33.2027 43.01,0 c 15.19,0 21.19,-4.8 21.19,-15.601 0,-11.2032 -5.8,-17.6017 -21.41,-17.6017 z M 3241.61,110 c 0,29.004 -17.21,44.805 -57.21,44.805 l -85,0 0,-151.19953 39.2,0 0,54.40233 34.2,0 c 19,0 26.4,-6.1992 26.99,-24.0039 0.8,-19.1992 1.82,-25.80077 3.01,-30.39843 l 40,0 0,1.39453 c -1.6,1.40625 -2.8,5.6055 -3.6,12.207 -1.6,13.3985 -1.6,29.3946 -5.8,40.5977 -2.59,6.7969 -10.21,12.5937 -19,14.8008 14.8,4.3984 27.21,14.2031 27.21,37.3945"
         inkscape:connector-curvature="0" /><path
         id="path62"
         style="fill:#214e8d;fill-opacity:1;fill-rule:nonzero;stroke:none"
         d="m 2445.3,107.207 c 0,-10.6054 -4.01,-16.4062 -19.01,-16.4062 l -39.59,0 0,31.8042 39.81,0 c 14.59,0 18.79,-6.003 18.79,-15.398 z m -97.8,47.598 0,-151.19953 39.2,0 0,55.79683 46.2,0 c 35.21,0 50.41,19.6016 50.41,45.9957 0,29.407 -15.41,49.407 -54.61,49.407 l -81.2,0"
         inkscape:connector-curvature="0" /><path
         id="path64"
         style="fill:#214e8d;fill-opacity:1;fill-rule:nonzero;stroke:none"
         d="m 3454.89,123.605 c 17.6,0 28.61,-8 35.41,-24.8042 l 32.4,19.6052 c -12.01,23.403 -31.8,39.199 -68.4,39.199 -47.01,0 -79,-33.203 -79,-78.4058 0,-45.1953 27.79,-79.1992 80,-79.1992 37.6,0 57.4,18.0078 70,40.6055 l -33.4,19.7929 c -6.41,-15.1953 -18.4,-26.1992 -36.6,-26.1992 -23.4,0 -39.4,15.6055 -39.4,45.2031 0,29.3987 15.59,44.2027 38.99,44.2027"
         inkscape:connector-curvature="0" /><path
         id="path66"
         style="fill:#214e8d;fill-opacity:1;fill-rule:nonzero;stroke:none"
         d="m 3035.4,125 0,29.805 -130.61,0 0,-151.19953 134.2,0 0,30.39843 -95,0 0,32.4024 68.42,0 0,29.7929 -68.42,0 0,28.8008 91.41,0"
         inkscape:connector-curvature="0" /><path
         id="path68"
         style="fill:#214e8d;fill-opacity:1;fill-rule:nonzero;stroke:none"
         d="m 3647.5,34.6016 c -24.8,0 -41.21,15.2031 -41.21,44.8007 0,29.3987 16.61,44.3987 40.8,44.3987 24.2,0 41.2,-15 41.2,-44.3987 0,-29.0039 -16.2,-44.8007 -40.79,-44.8007 z m -0.21,123.0034 c -44.59,0 -81.6,-33.203 -81.6,-78.4058 0,-45.1953 31.6,-79.1992 80.6,-79.1992 49.4,0 82.6,34.8047 82.6,80.3984 0,47.0036 -36.99,77.2066 -81.6,77.2066"
         inkscape:connector-curvature="0" /><path
         id="path70"
         style="fill:#214e8d;fill-opacity:1;fill-rule:nonzero;stroke:none"
         d="m 3957.09,3.60547 0,151.19953 -53.39,0 -36.21,-99.1995 -35.79,99.1995 -53,0 0,-151.19953 35.19,0 0,101.39453 38.4,-101.39453 27.81,0 38.79,101.39453 0,-101.39453 38.2,0"
         inkscape:connector-curvature="0" /></g></g></svg>