<?xml version="1.0" encoding="UTF-8" standalone="no"?>
<svg
   xmlns:dc="http://purl.org/dc/elements/1.1/"
   xmlns:cc="http://creativecommons.org/ns#"
   xmlns:rdf="http://www.w3.org/1999/02/22-rdf-syntax-ns#"
   xmlns:svg="http://www.w3.org/2000/svg"
   xmlns="http://www.w3.org/2000/svg"
   xmlns:sodipodi="http://sodipodi.sourceforge.net/DTD/sodipodi-0.dtd"
   xmlns:inkscape="http://www.inkscape.org/namespaces/inkscape"
   viewBox="0 0 300.672 66.757697"
   height="66.757698"
   width="300.672"
   xml:space="preserve"
   id="svg2"
   version="1.1"
   inkscape:version="0.91 r13725"
   sodipodi:docname="dell.svg"><sodipodi:namedview
     pagecolor="#ffffff"
     bordercolor="#666666"
     borderopacity="1"
     objecttolerance="10"
     gridtolerance="10"
     guidetolerance="10"
     inkscape:pageopacity="0"
     inkscape:pageshadow="2"
     inkscape:window-width="640"
     inkscape:window-height="480"
     id="namedview9"
     showgrid="false"
     fit-margin-top="0"
     fit-margin-left="0"
     fit-margin-right="0"
     fit-margin-bottom="0"
     inkscape:zoom="1.8847266"
     inkscape:cx="155.2255"
     inkscape:cy="37.718762"
     inkscape:current-layer="svg2" /><metadata
     id="metadata8"><rdf:RDF><cc:Work
         rdf:about=""><dc:format>image/svg+xml</dc:format><dc:type
           rdf:resource="http://purl.org/dc/dcmitype/StillImage" /><dc:title></dc:title></cc:Work></rdf:RDF></metadata><defs
     id="defs6" /><g
     transform="matrix(0.48849723,0,0,-0.48849723,0,52.962575)"
     id="g10"><g
       transform="scale(0.1,0.1)"
       id="g12"><path
         id="path14"
         style="fill:#808080;fill-opacity:1;fill-rule:nonzero;stroke:none"
         d="m 4049.36,78.1406 0,40.7074 -13.63,13.632 -502.62,0 -13.63,13.571 0,353.211 13.63,13.566 475.47,0 13.57,13.633 0,40.715 -13.57,13.629 -475.47,0 -13.63,13.57 0,339.641 13.63,13.57 502.62,0 13.63,13.57 0,40.774 -13.63,13.57 -584.1,0 -13.63,-13.57 0,-923.7894 13.63,-13.6406 584.1,0 z m 1141.11,0 0,923.7894 -13.51,13.57 -95.12,0 -13.57,-13.57 -353.27,-828.676 -13.57,0 -353.21,828.676 -13.63,13.57 -95.06,0 -13.63,-13.57 0,-923.7894 13.63,-13.6406 54.35,0 13.57,13.6406 0,787.8984 13.63,0 339.58,-787.8984 13.63,-13.6406 67.91,0 13.57,13.6406 339.64,787.8984 13.57,0 0,-787.8984 13.63,-13.6406 54.35,0 z m 597.79,-27.2109 c 190.23,0 339.63,95.1213 366.78,298.8673 l -13.52,13.633 -54.34,0 -13.63,-13.633 c -27.14,-149.344 -122.26,-230.949 -285.29,-230.949 -203.75,0 -353.21,149.465 -353.21,421.183 0,271.723 149.46,421.125 353.21,421.125 163.03,0 258.15,-81.488 285.29,-217.316 l 13.63,-13.633 54.34,0 13.52,13.633 c -27.15,190.176 -176.55,285.23 -366.78,285.23 -230.95,0 -434.76,-163.031 -434.76,-489.039 0,-326.066 203.81,-489.1013 434.76,-489.1013"
         inkscape:connector-curvature="0" /><path
         id="path16"
         style="fill:#007db8;fill-opacity:1;fill-rule:nonzero;stroke:none"
         d="m 216,253.5 0,573 169.5,0 C 528.816,826.5 645,698.23 645,540 645,381.77 528.816,253.5 385.5,253.5 Z m 169.5,-189 c 221.281,0 407.254,151.152 460.313,355.844 L 1383.82,0 l 537.68,420.078 0,-355.578 613.5,0 0,189 -397.5,0 0,762 -216,0 0,-355.578 L 1405.75,256.977 1290.41,347.094 1537.32,540 1806.16,750.039 1652.66,869.961 1136.91,467.016 1021.57,557.133 1537.32,960.078 1383.82,1080 845.813,659.66 C 792.754,864.348 606.781,1015.5 385.5,1015.5 l -385.5,0 0,-951 z m 2223,951 216,0 m 397.5,-762 0,-189 -613.5,0 0,951 216,0 0,-762 397.5,0"
         inkscape:connector-curvature="0" /></g></g></svg>