<?xml version="1.0" encoding="UTF-8" standalone="no"?>
<svg
   xmlns:dc="http://purl.org/dc/elements/1.1/"
   xmlns:cc="http://creativecommons.org/ns#"
   xmlns:rdf="http://www.w3.org/1999/02/22-rdf-syntax-ns#"
   xmlns:svg="http://www.w3.org/2000/svg"
   xmlns="http://www.w3.org/2000/svg"
   xmlns:sodipodi="http://sodipodi.sourceforge.net/DTD/sodipodi-0.dtd"
   xmlns:inkscape="http://www.inkscape.org/namespaces/inkscape"
   width="310"
   height="437.96878"
   id="svg4589"
   sodipodi:version="0.32"
   inkscape:version="0.91 r13725"
   sodipodi:docname="sbc.svg"
   inkscape:output_extension="org.inkscape.output.svg.inkscape"
   version="1.0">
  <metadata
     id="metadata4652">
    <rdf:RDF>
      <cc:Work
         rdf:about="">
        <dc:format>image/svg+xml</dc:format>
        <dc:type
           rdf:resource="http://purl.org/dc/dcmitype/StillImage" />
        <dc:title></dc:title>
      </cc:Work>
    </rdf:RDF>
  </metadata>
  <sodipodi:namedview
     inkscape:window-height="1036"
     inkscape:window-width="1920"
     inkscape:pageshadow="2"
     inkscape:pageopacity="0.0"
     guidetolerance="10.0"
     gridtolerance="10.0"
     objecttolerance="10.0"
     borderopacity="1.0"
     bordercolor="#666666"
     pagecolor="#ffffff"
     id="base"
     showgrid="false"
     inkscape:zoom="3.8137206"
     inkscape:cx="127.62017"
     inkscape:cy="69.603288"
     inkscape:window-x="0"
     inkscape:window-y="0"
     inkscape:current-layer="layer6"
     inkscape:window-maximized="1"
     fit-margin-top="0"
     fit-margin-left="0"
     fit-margin-right="0"
     fit-margin-bottom="0" />
  <defs
     id="defs4591">
    <inkscape:perspective
       sodipodi:type="inkscape:persp3d"
       inkscape:vp_x="0 : 148.4115 : 1"
       inkscape:vp_y="0 : 1000 : 0"
       inkscape:vp_z="199.39 : 148.4115 : 1"
       inkscape:persp3d-origin="99.695 : 98.940999 : 1"
       id="perspective4654" />
    <marker
       id="ArrowEnd"
       viewBox="0 0 10 10"
       refX="0"
       refY="5"
       markerUnits="strokeWidth"
       markerWidth="4"
       markerHeight="3"
       orient="auto">
      <path
         d="M 0,0 10,5 0,10 0,0 Z"
         id="path4594"
         inkscape:connector-curvature="0" />
    </marker>
    <marker
       id="ArrowStart"
       viewBox="0 0 10 10"
       refX="10"
       refY="5"
       markerUnits="strokeWidth"
       markerWidth="4"
       markerHeight="3"
       orient="auto">
      <path
         d="M 10,0 0,5 10,10 10,0 Z"
         id="path4597"
         inkscape:connector-curvature="0" />
    </marker>
    <inkscape:perspective
       id="perspective4757"
       inkscape:persp3d-origin="372.04724 : 350.78739 : 1"
       inkscape:vp_z="744.09448 : 526.18109 : 1"
       inkscape:vp_y="0 : 1000 : 0"
       inkscape:vp_x="0 : 526.18109 : 1"
       sodipodi:type="inkscape:persp3d" />
  </defs>
  <g
     id="g4649"
     transform="translate(-24.095532,183.01686)" />
  <g
     inkscape:groupmode="layer"
     id="layer6"
     inkscape:label="logo_v"
     style="display:inline"
     transform="translate(-24.095532,183.01686)">
    <g
       id="g2451"
       transform="matrix(2.0512749,0,0,2.0512749,-25.331027,-268.02455)">
      <g
         id="g2441">
        <path
           id="path4629"
           d="m 162.72506,144.19155 c 4.76963,-6.36552 7.47234,-13.61044 7.47234,-21.28651 0,-25.221383 -29.18124,-45.791928 -64.95991,-45.791928 -20.660503,0 -39.121651,6.859594 -51.033631,17.512885 11.953292,-6.314549 22.833868,-10.42369 41.793859,-10.467706 30.114572,-0.07001 66.814862,18.733479 67.361832,52.836599 0.0386,2.43964 -0.21621,4.8426 -0.63449,7.19666 z"
           style="fill:#cccccc;fill-opacity:1;stroke:none;stroke-width:0.21602701"
           inkscape:connector-curvature="0" />
        <path
           id="path4631"
           d="m 169.5436,91.506946 c -4.70399,25.717784 -34.24765,45.639674 -69.795943,45.639674 -38.802479,0 -70.449867,-23.73515 -70.449867,-52.836591 0,-17.310182 11.19731,-32.721907 28.437604,-42.368634 -8.980704,7.796017 -14.347634,17.621766 -14.347634,28.27866 0,25.221387 30.065022,45.791935 66.92734,45.791935 25.64314,0 47.99683,-9.95471 59.2285,-24.505044 z"
           style="fill:#cccccc;fill-opacity:1;stroke:none;stroke-width:2;stroke-miterlimit:4;stroke-dasharray:none"
           inkscape:connector-curvature="0" />
        <path
           id="path4633"
           d="m 169.5436,101.97504 c -4.70399,25.71778 -34.24765,45.6398 -69.795943,45.6398 -38.802479,0 -70.449867,-23.73528 -70.449867,-52.83672 0,-17.310182 11.19731,-32.721778 28.437604,-42.368505 -8.980704,7.796017 -14.347634,17.621637 -14.347634,28.278532 0,25.221513 30.065022,45.791933 66.92734,45.791933 25.64314,0 47.99683,-9.95471 59.2285,-24.50504 z"
           style="fill:#00ccff;stroke:#000000;stroke-width:1;stroke-miterlimit:4;stroke-dasharray:none"
           inkscape:connector-curvature="0" />
        <path
           id="path4635"
           d="m 57.735394,41.941395 -28.437604,0 0,61.497655 0,-19.129021 c 0,-17.310182 11.19731,-32.721907 28.437604,-42.368634 z"
           style="fill:#ffcc00;fill-opacity:1;stroke:#000000;stroke-width:1;stroke-miterlimit:4;stroke-dasharray:none"
           sodipodi:nodetypes="ccccc"
           inkscape:connector-curvature="0" />
        <path
           style="fill:#28cc51;fill-opacity:1;stroke:#000000;stroke-width:1;stroke-miterlimit:4;stroke-dasharray:none"
           d="m 29.28285,94.773633 0,60.281247 0,2.75 0,60.78125 133.875,0 0,-60.78125 0,-2.75 0,-37.28125 c -11.43373,17.63785 -35.58049,29.84375 -63.40625,29.84375 -38.802478,0 -70.46875,-23.74231 -70.46875,-52.843747 z"
           id="path4643"
           inkscape:connector-curvature="0" />
        <path
           id="path4647"
           d="m 163.17165,153.92386 c 4.43354,-6.18563 7.02575,-13.16887 7.02575,-20.55073 0,-25.22125 -29.18124,-45.791927 -64.95991,-45.791927 -20.660503,0 -39.121651,6.859594 -51.033631,17.512887 11.953292,-6.314422 22.833868,-10.423563 41.793859,-10.467707 30.114572,-0.07001 66.814862,18.733477 67.361832,52.836727 0.0228,1.43833 -0.0565,2.86386 -0.21105,4.27415 l 0.0231,2.1866 z"
           style="fill:#ffffff;stroke:#000000;stroke-width:1;stroke-miterlimit:4;stroke-dasharray:none"
           sodipodi:nodetypes="csscsccc"
           inkscape:connector-curvature="0" />
        <path
           id="path4637"
           d="m 29.5207,198.87576 c 2.90219,0.97941 5.52317,1.68984 7.87375,2.14157 2.36332,0.45303 4.61635,0.68726 6.77169,0.68726 1.50618,0 2.70592,-0.28185 3.62446,-0.85714 0.90592,-0.57658 1.35881,-1.34749 1.35881,-2.30245 0,-1.33462 -1.76293,-3.35521 -5.27709,-6.06178 -0.57593,-0.45302 -1.01622,-0.79537 -1.32278,-1.0399 l -0.1103,-0.0734 C 34.56549,185.17433 30.6355,179.88475 30.6355,175.47548 c 0,-4.139 1.72587,-7.38353 5.17954,-9.73488 3.46538,-2.36294 8.27787,-3.53797 14.44918,-3.53797 1.6897,0 3.575675,0.12098 5.656887,0.35521 2.082241,0.24453 4.481599,0.63578 7.17581,1.1879 l 0.905792,11.00774 c -2.632692,-0.69756 -4.762552,-1.18791 -6.40348,-1.46976 -1.641057,-0.28185 -3.03694,-0.42857 -4.176194,-0.42857 -2.081085,0 -3.648785,0.28185 -4.689455,0.84556 -1.04054,0.56242 -1.55495,1.40669 -1.55495,2.52252 0,1.2973 1.92201,3.41571 5.76718,6.35393 0.673493,0.52767 1.199619,0.93179 1.579414,1.22523 4.138871,3.19563 6.967831,5.91378 8.485721,8.11841 1.519049,2.21622 2.27748,4.5547 2.27748,7.01545 0,4.51867 -1.72587,7.93437 -5.1668,10.26256 -3.441058,2.31403 -8.547365,3.47619 -15.319065,3.47619 -1.98352,0 -4.16332,-0.13513 -6.52664,-0.4157 -2.36332,-0.26898 -4.91005,-0.6731 -7.64042,-1.20077 l -1.1148,-12.18277 z m 56.645864,-16.62807 3.306309,0 c 2.791894,0 4.812488,-0.41699 6.061009,-1.23681 1.236809,-0.82111 1.86152,-2.15573 1.86152,-4.00386 0,-1.76448 -0.465637,-3.00129 -1.395882,-3.71043 -0.931275,-0.69884 -2.596656,-1.05406 -4.984303,-1.05406 l -4.27362,0 c -0.02445,0.24582 -0.06049,0.8816 -0.122008,1.93566 -0.06152,1.05276 -0.110296,1.97168 -0.159202,2.76705 l -0.293823,5.30245 z m -0.746719,20.20336 5.65689,0 c 2.619951,0 4.543119,-0.49034 5.791511,-1.45688 1.23681,-0.96783 1.861649,-2.46204 1.861649,-4.50708 0,-1.83656 -0.526126,-3.22008 -1.59215,-4.13772 -1.064995,-0.91892 -2.668857,-1.38352 -4.799876,-1.38352 l -6.636943,0 -0.20785,4.01544 c -0.02445,0.50322 -0.04878,1.09009 -0.06152,1.76448 -0.01171,0.67182 -0.01171,1.73874 -0.01171,3.19563 l 0,2.50965 z m 11.154579,-39.39128 c 5.449036,0 9.417126,0.88031 11.889716,2.63192 2.47362,1.7632 3.71043,4.5547 3.71043,8.37581 0,3.30631 -1.00348,6.01159 -3.01249,8.14287 -2.00798,2.13127 -4.84853,3.47748 -8.53463,4.05277 4.139,0.37966 7.21301,1.53024 9.2336,3.45303 2.01969,1.90991 3.03591,4.64093 3.03591,8.18018 0,4.46848 -1.51802,7.88547 -4.55483,10.26127 -3.03681,2.36294 -7.43244,3.55084 -13.175301,3.55084 l -25.604784,0 c 0.75946,-6.39254 1.359847,-13.67697 1.788419,-21.86874 0.440154,-8.19306 0.697941,-17.11971 0.795496,-26.77995 l 24.428464,0 z m 65.046386,11.69371 c -1.9601,-0.67311 -3.91892,-1.16345 -5.89061,-1.48134 -1.95882,-0.33076 -3.8816,-0.49035 -5.76706,-0.49035 -5.15573,0 -9.15959,1.35907 -12.02459,4.07722 -2.87774,2.70657 -4.31081,6.48907 -4.31081,11.35136 0,4.51867 1.27387,7.86101 3.80901,10.02833 1.89974,1.62548 4.58018,2.63706 8.04248,3.04247 1.15573,0.13513 2.39768,0.20206 3.72458,0.20206 1.90863,0 3.81983,-0.12098 5.71815,-0.37967 1.90992,-0.24453 3.86873,-0.63578 5.91378,-1.16216 l -1.68855,11.41056 c -2.15573,0.47877 -4.36036,0.84556 -6.6242,1.09138 -2.25354,0.25611 -4.55599,0.37967 -6.90734,0.37967 -8.98714,0 -15.84467,-2.0695 -20.55961,-6.22137 -4.7139,-4.15059 -7.06448,-10.18663 -7.06448,-18.10941 0,-8.36423 2.54685,-14.86488 7.62768,-19.49423 5.08198,-4.62935 12.23334,-6.94338 21.46617,-6.94338 2.30116,0 4.60489,0.12356 6.9305,0.37967 2.31404,0.24582 4.66539,0.63707 7.02832,1.16345 l 0.57658,11.15574 z"
           style="fill:#ffffff;stroke:#000000;stroke-width:0.26563954"
           inkscape:connector-curvature="0" />
        <path
           id="path4639"
           d="m 29.5207,198.87576 c 2.90219,0.97941 5.52317,1.68984 7.87375,2.14157 2.36332,0.45303 4.61635,0.68726 6.77169,0.68726 1.50618,0 2.70592,-0.28185 3.62446,-0.85714 0.90592,-0.57658 1.35881,-1.34749 1.35881,-2.30245 0,-1.33462 -1.76293,-3.35521 -5.27709,-6.06178 -0.57593,-0.45302 -1.01622,-0.79537 -1.32278,-1.0399 l -0.1103,-0.0734 C 34.56549,185.17433 30.6355,179.88475 30.6355,175.47548 c 0,-4.139 1.72587,-7.38353 5.17954,-9.73488 3.46538,-2.36294 8.27787,-3.53797 14.44918,-3.53797 1.6897,0 3.575675,0.12098 5.656887,0.35521 2.082241,0.24453 4.481599,0.63578 7.17581,1.1879 l 0.905792,11.00774 c -2.632692,-0.69756 -4.762552,-1.18791 -6.40348,-1.46976 -1.641057,-0.28185 -3.03694,-0.42857 -4.176194,-0.42857 -2.081085,0 -3.648785,0.28185 -4.689455,0.84556 -1.04054,0.56242 -1.55495,1.40669 -1.55495,2.52252 0,1.2973 1.92201,3.41571 5.76718,6.35393 0.673493,0.52767 1.199619,0.93179 1.579414,1.22523 4.138871,3.19563 6.967831,5.91378 8.485721,8.11841 1.519049,2.21622 2.27748,4.5547 2.27748,7.01545 0,4.51867 -1.72587,7.93437 -5.1668,10.26256 -3.441058,2.31403 -8.547365,3.47619 -15.319065,3.47619 -1.98352,0 -4.16332,-0.13513 -6.52664,-0.4157 -2.36332,-0.26898 -4.91005,-0.6731 -7.64042,-1.20077 l -1.1148,-12.18277 z m 56.645864,-16.62807 3.306309,0 c 2.791894,0 4.812488,-0.41699 6.061009,-1.23681 1.236809,-0.82111 1.86152,-2.15573 1.86152,-4.00386 0,-1.76448 -0.465637,-3.00129 -1.395882,-3.71043 -0.931275,-0.69884 -2.596656,-1.05406 -4.984303,-1.05406 l -4.27362,0 c -0.02445,0.24582 -0.06049,0.8816 -0.122008,1.93566 -0.06152,1.05276 -0.110296,1.97168 -0.159202,2.76705 l -0.293823,5.30245 z m -0.746719,20.20336 5.65689,0 c 2.619951,0 4.543119,-0.49034 5.791511,-1.45688 1.23681,-0.96783 1.861649,-2.46204 1.861649,-4.50708 0,-1.83656 -0.526126,-3.22008 -1.59215,-4.13772 -1.064995,-0.91892 -2.668857,-1.38352 -4.799876,-1.38352 l -6.636943,0 -0.20785,4.01544 c -0.02445,0.50322 -0.04878,1.09009 -0.06152,1.76448 -0.01171,0.67182 -0.01171,1.73874 -0.01171,3.19563 l 0,2.50965 z m 11.154579,-39.39128 c 5.449036,0 9.417126,0.88031 11.889716,2.63192 2.47362,1.7632 3.71043,4.5547 3.71043,8.37581 0,3.30631 -1.00348,6.01159 -3.01249,8.14287 -2.00798,2.13127 -4.84853,3.47748 -8.53463,4.05277 4.139,0.37966 7.21301,1.53024 9.2336,3.45303 2.01969,1.90991 3.03591,4.64093 3.03591,8.18018 0,4.46848 -1.51802,7.88547 -4.55483,10.26127 -3.03681,2.36294 -7.43244,3.55084 -13.175301,3.55084 l -25.604784,0 c 0.75946,-6.39254 1.359847,-13.67697 1.788419,-21.86874 0.440154,-8.19306 0.697941,-17.11971 0.795496,-26.77995 l 24.428464,0 z m 65.046386,11.69371 c -1.9601,-0.67311 -3.91892,-1.16345 -5.89061,-1.48134 -1.95882,-0.33076 -3.8816,-0.49035 -5.76706,-0.49035 -5.15573,0 -9.15959,1.35907 -12.02459,4.07722 -2.87774,2.70657 -4.31081,6.48907 -4.31081,11.35136 0,4.51867 1.27387,7.86101 3.80901,10.02833 1.89974,1.62548 4.58018,2.63706 8.04248,3.04247 1.15573,0.13513 2.39768,0.20206 3.72458,0.20206 1.90863,0 3.81983,-0.12098 5.71815,-0.37967 1.90992,-0.24453 3.86873,-0.63578 5.91378,-1.16216 l -1.68855,11.41056 c -2.15573,0.47877 -4.36036,0.84556 -6.6242,1.09138 -2.25354,0.25611 -4.55599,0.37967 -6.90734,0.37967 -8.98714,0 -15.84467,-2.0695 -20.55961,-6.22137 -4.7139,-4.15059 -7.06448,-10.18663 -7.06448,-18.10941 0,-8.36423 2.54685,-14.86488 7.62768,-19.49423 5.08198,-4.62935 12.23334,-6.94338 21.46617,-6.94338 2.30116,0 4.60489,0.12356 6.9305,0.37967 2.31404,0.24582 4.66539,0.63707 7.02832,1.16345 l 0.57658,11.15574 z"
           style="fill:#ffffff;stroke:#000000;stroke-width:1;stroke-miterlimit:4;stroke-dasharray:none"
           inkscape:connector-curvature="0" />
      </g>
      <g
         transform="translate(149.1251,24.523633)"
         id="g2434">
        <text
           xml:space="preserve"
           style="font-style:normal;font-variant:normal;font-weight:normal;font-stretch:normal;font-size:15.50986099px;line-height:125%;font-family:'Eras Bd BT';-inkscape-font-specification:'Eras Bd BT';text-align:center;writing-mode:lr-tb;text-anchor:middle;fill:#000000;fill-opacity:1;stroke:none;stroke-width:1px;stroke-linecap:butt;stroke-linejoin:miter;stroke-opacity:1"
           x="-50.817993"
           y="202.41733"
           id="text5386"
           sodipodi:linespacing="125%"
           transform="scale(0.9693663,1.0316018)"><tspan
             sodipodi:role="line"
             x="-50.817993"
             y="202.41733"
             id="tspan2426">Sociedade Brasileira</tspan></text>
        <text
           xml:space="preserve"
           style="font-style:normal;font-variant:normal;font-weight:normal;font-stretch:normal;font-size:15.50986099px;line-height:125%;font-family:'Eras Bd BT';-inkscape-font-specification:'Eras Bd BT';text-align:center;writing-mode:lr-tb;text-anchor:middle;display:inline;fill:#000000;fill-opacity:1;stroke:none;stroke-width:1px;stroke-linecap:butt;stroke-linejoin:miter;stroke-opacity:1"
           x="-51.220329"
           y="220.14323"
           id="text2430"
           sodipodi:linespacing="125%"
           transform="scale(0.9693663,1.0316018)"><tspan
             sodipodi:role="line"
             x="-51.220329"
             y="220.14323"
             id="tspan2432">de Computação</tspan></text>
      </g>
    </g>
  </g>
  <g
     inkscape:groupmode="layer"
     id="layer7"
     inkscape:label="logo_h"
     style="display:none"
     transform="translate(-24.095532,183.01686)">
    <g
       id="g4603"
       transform="translate(-2.0055671,-20.223585)">
      <path
         style="fill:#00cc33;stroke:#000000;stroke-width:0.331128"
         d="m 10.552,281.345 187.102,0 0,-31.38 -85.505,0.083 -64.7257,8.154 -25.8884,-23.535 -10.9829,0 0,46.678 z"
         id="path4605"
         inkscape:connector-curvature="0" />
      <path
         style="fill:#ffffff;stroke:#000000;stroke-width:0.26563951"
         d="m 123.709,272.424 c 1.53,0.517 2.911,0.891 4.15,1.129 1.246,0.239 2.434,0.362 3.57,0.362 0.794,0 1.426,-0.149 1.91,-0.452 0.478,-0.303 0.717,-0.71 0.717,-1.213 0,-0.704 -0.93,-1.769 -2.782,-3.195 -0.304,-0.239 -0.536,-0.42 -0.697,-0.549 l -0.058,-0.038 c -4.151,-3.266 -6.222,-6.054 -6.222,-8.378 0,-2.182 0.909,-3.892 2.73,-5.131 1.827,-1.246 4.363,-1.866 7.616,-1.866 0.891,0 1.885,0.065 2.982,0.188 1.097,0.129 2.362,0.335 3.782,0.626 l 0.478,5.802 c -1.388,-0.368 -2.511,-0.626 -3.376,-0.775 -0.865,-0.148 -1.6,-0.225 -2.201,-0.225 -1.097,0 -1.923,0.148 -2.472,0.445 -0.548,0.297 -0.819,0.742 -0.819,1.33 0,0.684 1.013,1.801 3.04,3.349 0.355,0.278 0.632,0.491 0.832,0.646 2.182,1.685 3.673,3.117 4.473,4.279 0.801,1.168 1.2,2.401 1.2,3.698 0,2.382 -0.909,4.183 -2.723,5.409 -1.814,1.22 -4.505,1.833 -8.075,1.833 -1.045,0 -2.194,-0.071 -3.44,-0.219 -1.246,-0.142 -2.588,-0.355 -4.027,-0.633 l -0.588,-6.422 z m 29.858,-8.765 1.743,0 c 1.472,0 2.537,-0.219 3.195,-0.651 0.652,-0.433 0.981,-1.137 0.981,-2.111 0,-0.93 -0.245,-1.582 -0.736,-1.956 -0.49,-0.368 -1.368,-0.555 -2.627,-0.555 l -2.252,0 c -0.013,0.129 -0.032,0.465 -0.065,1.02 -0.032,0.555 -0.058,1.039 -0.084,1.458 l -0.155,2.795 z m -0.393,10.65 2.982,0 c 1.381,0 2.394,-0.259 3.052,-0.768 0.652,-0.51 0.982,-1.298 0.982,-2.376 0,-0.968 -0.278,-1.697 -0.84,-2.181 -0.561,-0.484 -1.406,-0.729 -2.53,-0.729 l -3.498,0 -0.11,2.117 c -0.012,0.265 -0.025,0.574 -0.032,0.929 -0.006,0.355 -0.006,0.917 -0.006,1.685 l 0,1.323 z m 5.879,-20.764 c 2.873,0 4.964,0.465 6.268,1.388 1.303,0.929 1.955,2.401 1.955,4.415 0,1.742 -0.529,3.169 -1.588,4.292 -1.058,1.123 -2.555,1.833 -4.498,2.136 2.182,0.2 3.802,0.807 4.867,1.82 1.064,1.007 1.6,2.446 1.6,4.312 0,2.355 -0.8,4.156 -2.401,5.409 -1.6,1.245 -3.917,1.871 -6.944,1.871 l -13.497,0 c 0.4,-3.369 0.717,-7.209 0.943,-11.527 0.232,-4.318 0.368,-9.023 0.419,-14.116 l 12.876,0 z m 34.286,6.164 c -1.032,-0.355 -2.065,-0.613 -3.104,-0.781 -1.033,-0.174 -2.046,-0.258 -3.04,-0.258 -2.717,0 -4.828,0.716 -6.338,2.149 -1.517,1.426 -2.273,3.421 -2.273,5.983 0,2.382 0.672,4.144 2.008,5.287 1.336,1.142 3.401,1.71 6.202,1.71 1.007,0 2.014,-0.064 3.015,-0.2 1.007,-0.129 2.039,-0.336 3.117,-0.613 l -0.89,6.015 c -1.137,0.252 -2.298,0.445 -3.492,0.575 -1.188,0.135 -2.401,0.2 -3.64,0.2 -4.738,0 -8.352,-1.091 -10.838,-3.279 -2.484,-2.188 -3.723,-5.37 -3.723,-9.546 0,-4.409 1.342,-7.835 4.02,-10.275 2.679,-2.44 6.448,-3.66 11.315,-3.66 1.213,0 2.427,0.065 3.653,0.2 1.22,0.129 2.459,0.336 3.705,0.613 l 0.303,5.88 z"
         id="path4607"
         inkscape:connector-curvature="0" />
      <path
         style="fill:#000000;stroke:#000000;stroke-width:0.21602701"
         d="m 121.398,289.289 c -0.092,-0.031 -0.178,-0.052 -0.261,-0.066 -0.082,-0.013 -0.161,-0.02 -0.239,-0.02 -0.427,0 -0.764,0.144 -1.013,0.433 -0.245,0.289 -0.37,0.682 -0.37,1.18 0,0.359 0.077,0.642 0.228,0.847 0.151,0.205 0.358,0.308 0.619,0.308 0.3,0 0.531,-0.11 0.695,-0.331 0.163,-0.22 0.254,-0.547 0.275,-0.981 l 0.066,-1.37 z m -0.207,3.641 c -0.179,0.163 -0.384,0.286 -0.618,0.364 -0.235,0.077 -0.508,0.115 -0.82,0.115 -0.704,0 -1.255,-0.212 -1.658,-0.636 -0.401,-0.423 -0.602,-1.003 -0.602,-1.74 0,-0.945 0.299,-1.706 0.898,-2.285 0.598,-0.578 1.379,-0.868 2.346,-0.868 0.094,0 0.199,0.005 0.314,0.015 0.118,0.012 0.245,0.024 0.386,0.045 0.017,-0.215 0.029,-0.444 0.038,-0.684 0.008,-0.243 0.014,-0.521 0.014,-0.834 l 1.992,0 c -0.091,1.351 -0.167,2.587 -0.229,3.705 -0.062,1.119 -0.114,2.163 -0.155,3.135 l -1.916,0 0.01,-0.332 z m 5.11,-2.963 1.355,0 0,-0.044 c 0,-0.284 -0.05,-0.498 -0.151,-0.646 -0.1,-0.149 -0.246,-0.222 -0.438,-0.222 -0.205,0 -0.375,0.078 -0.509,0.239 -0.134,0.16 -0.221,0.383 -0.257,0.673 z m 2.469,3.225 c -0.329,0.07 -0.647,0.123 -0.952,0.161 -0.306,0.036 -0.599,0.056 -0.878,0.056 -0.894,0 -1.579,-0.219 -2.053,-0.657 -0.473,-0.437 -0.71,-1.065 -0.71,-1.886 0,-0.942 0.261,-1.677 0.786,-2.209 0.525,-0.533 1.252,-0.797 2.184,-0.797 0.8,0 1.396,0.175 1.789,0.525 0.39,0.349 0.587,0.879 0.587,1.592 0,0.131 -0.008,0.283 -0.023,0.452 -0.015,0.17 -0.038,0.356 -0.069,0.557 l -3.14,0.006 c -0.003,0.017 -0.007,0.034 -0.008,0.054 -0.003,0.021 -0.003,0.054 -0.003,0.097 0,0.292 0.106,0.509 0.314,0.648 0.209,0.141 0.533,0.211 0.976,0.211 0.229,0 0.462,-0.014 0.696,-0.043 0.236,-0.029 0.476,-0.074 0.722,-0.135 l -0.218,1.368 z m 10.779,-5.126 c -0.275,-0.094 -0.551,-0.164 -0.828,-0.209 -0.276,-0.046 -0.547,-0.068 -0.811,-0.068 -0.725,0 -1.288,0.191 -1.691,0.574 -0.404,0.38 -0.606,0.912 -0.606,1.595 0,0.636 0.179,1.105 0.535,1.41 0.357,0.305 0.907,0.456 1.655,0.456 0.268,0 0.537,-0.016 0.803,-0.052 0.27,-0.035 0.545,-0.09 0.832,-0.164 l -0.237,1.604 c -0.303,0.068 -0.613,0.12 -0.932,0.154 -0.316,0.036 -0.64,0.053 -0.971,0.053 -1.263,0 -2.228,-0.291 -2.891,-0.874 -0.663,-0.585 -0.993,-1.433 -0.993,-2.547 0,-1.176 0.358,-2.09 1.072,-2.741 1.29,-1.174 3.366,-1.12 4.982,-0.759 l 0.081,1.568 z m 3.572,1.195 c -0.316,0 -0.554,0.12 -0.71,0.362 -0.159,0.239 -0.238,0.602 -0.238,1.085 0,0.435 0.072,0.757 0.217,0.964 0.144,0.206 0.368,0.31 0.669,0.31 0.314,0 0.549,-0.116 0.71,-0.346 0.16,-0.231 0.239,-0.57 0.239,-1.017 0,-0.485 -0.069,-0.832 -0.206,-1.043 -0.138,-0.21 -0.365,-0.315 -0.681,-0.315 z m -2.987,1.479 c 0,-0.895 0.274,-1.598 0.82,-2.111 0.547,-0.513 1.295,-0.769 2.243,-0.769 0.911,0 1.614,0.23 2.108,0.69 0.493,0.461 0.741,1.116 0.741,1.963 0,0.902 -0.269,1.609 -0.808,2.124 -0.541,0.515 -1.284,0.772 -2.229,0.772 -0.92,0 -1.63,-0.231 -2.127,-0.69 -0.498,-0.462 -0.748,-1.121 -0.748,-1.979 z m 6.572,2.522 c 0.085,-0.817 0.148,-1.663 0.192,-2.537 0.044,-0.875 0.065,-1.781 0.065,-2.719 l 1.933,0 0,0.651 c 0.202,-0.29 0.421,-0.496 0.656,-0.622 0.235,-0.124 0.525,-0.186 0.873,-0.186 0.427,0 0.775,0.076 1.044,0.227 0.268,0.152 0.454,0.376 0.554,0.672 0.202,-0.324 0.422,-0.554 0.661,-0.692 0.24,-0.138 0.541,-0.207 0.905,-0.207 0.59,0 1.022,0.136 1.296,0.407 0.272,0.27 0.408,0.703 0.408,1.298 0,0.218 -0.021,0.74 -0.061,1.561 -0.041,0.824 -0.066,1.538 -0.08,2.147 l -1.966,0 c 0.039,-0.399 0.07,-0.814 0.089,-1.243 0.02,-0.429 0.031,-0.873 0.031,-1.329 0,-0.512 -0.04,-0.856 -0.119,-1.034 -0.08,-0.178 -0.218,-0.268 -0.417,-0.268 -0.326,0 -0.556,0.257 -0.689,0.77 -0.132,0.513 -0.199,1.465 -0.199,2.857 l 0,0.247 -1.901,0 c 0.04,-0.454 0.071,-0.895 0.089,-1.323 0.021,-0.43 0.031,-0.846 0.031,-1.249 0,-0.512 -0.039,-0.856 -0.118,-1.034 -0.079,-0.178 -0.217,-0.268 -0.415,-0.268 -0.328,0 -0.556,0.257 -0.689,0.77 -0.132,0.513 -0.199,1.465 -0.199,2.857 l 0,0.247 -1.974,0 z m 11.651,-3.853 c -0.026,0.141 -0.046,0.313 -0.06,0.516 -0.014,0.204 -0.019,0.433 -0.019,0.684 0,0.451 0.07,0.781 0.209,0.989 0.139,0.207 0.363,0.313 0.668,0.313 0.309,0 0.548,-0.12 0.711,-0.358 0.165,-0.24 0.248,-0.582 0.248,-1.03 0,-0.431 -0.084,-0.749 -0.255,-0.957 -0.17,-0.209 -0.428,-0.314 -0.78,-0.314 -0.127,0 -0.252,0.014 -0.37,0.04 -0.119,0.027 -0.236,0.068 -0.352,0.117 z m -2.334,6.033 c 0.105,-0.628 0.189,-1.529 0.257,-2.701 0.067,-1.173 0.12,-2.681 0.156,-4.529 0.434,-0.117 0.866,-0.206 1.294,-0.265 0.43,-0.058 0.855,-0.087 1.28,-0.087 1.045,0 1.829,0.22 2.35,0.661 0.522,0.441 0.782,1.103 0.782,1.992 0,0.874 -0.227,1.576 -0.681,2.103 -0.453,0.529 -1.058,0.793 -1.81,0.793 -0.303,0 -0.575,-0.042 -0.816,-0.124 -0.239,-0.083 -0.455,-0.207 -0.643,-0.375 l -0.051,1.079 c -0.012,0.211 -0.024,0.441 -0.033,0.687 -0.007,0.245 -0.016,0.501 -0.023,0.766 l -2.062,0 z m 12.872,-7.436 c -0.088,0.814 -0.152,1.658 -0.195,2.534 -0.041,0.877 -0.062,1.784 -0.062,2.722 l -1.931,0 0,-0.661 c -0.243,0.29 -0.501,0.498 -0.778,0.627 -0.276,0.128 -0.61,0.191 -1.004,0.191 -0.689,0 -1.19,-0.136 -1.504,-0.406 -0.312,-0.27 -0.468,-0.704 -0.468,-1.299 0,-0.214 0.023,-0.735 0.069,-1.56 0.044,-0.822 0.075,-1.539 0.087,-2.148 l 1.983,0 c -0.044,0.54 -0.076,1.038 -0.099,1.491 -0.022,0.451 -0.033,0.807 -0.033,1.065 0,0.505 0.054,0.852 0.162,1.037 0.107,0.188 0.295,0.281 0.56,0.281 0.434,0 0.735,-0.241 0.902,-0.722 0.169,-0.48 0.26,-1.532 0.273,-3.152 l 2.038,0 z m 3.015,2.754 c 0,0.007 -0.002,0.039 -0.006,0.093 -0.002,0.056 -0.005,0.109 -0.005,0.159 0,0.341 0.047,0.573 0.14,0.699 0.091,0.126 0.253,0.19 0.481,0.19 0.051,0 0.155,-0.014 0.312,-0.04 0.064,-0.011 0.115,-0.018 0.153,-0.021 l -0.121,1.462 c -0.169,0.038 -0.344,0.065 -0.525,0.081 -0.183,0.017 -0.372,0.026 -0.571,0.026 -0.623,0 -1.084,-0.138 -1.387,-0.412 -0.303,-0.274 -0.455,-0.692 -0.455,-1.253 l 0,-0.176 0.115,-2.211 -0.755,0 0.06,-1.351 0.837,0 0.046,-0.847 1.856,-0.414 -0.07,1.261 1.176,0 -0.07,1.351 -1.135,0 -0.076,1.403 z m 4.014,2.534 c -0.149,0.029 -0.291,0.053 -0.427,0.068 -0.137,0.018 -0.266,0.026 -0.387,0.026 -0.533,0 -0.951,-0.131 -1.253,-0.391 -0.301,-0.261 -0.451,-0.616 -0.451,-1.067 0,-0.477 0.145,-0.854 0.436,-1.13 0.291,-0.275 0.773,-0.489 1.445,-0.635 0.065,-0.017 0.154,-0.038 0.273,-0.062 0.767,-0.164 1.15,-0.358 1.15,-0.58 0,-0.118 -0.047,-0.201 -0.141,-0.255 -0.095,-0.052 -0.249,-0.078 -0.468,-0.078 -0.301,0 -0.616,0.037 -0.949,0.109 -0.332,0.072 -0.665,0.177 -0.993,0.315 l 0.227,-1.498 c 0.305,-0.087 0.63,-0.153 0.972,-0.198 0.343,-0.047 0.702,-0.069 1.075,-0.069 0.752,0 1.31,0.111 1.671,0.331 0.359,0.22 0.537,0.559 0.537,1.021 0,0.074 -0.001,0.159 -0.004,0.251 -0.003,0.095 -0.008,0.195 -0.015,0.298 l -0.121,2.639 c -0.007,0.051 -0.011,0.126 -0.011,0.227 0,0.103 0,0.317 0,0.646 l -1.997,0 c 0.028,-0.362 0.048,-0.647 0.064,-0.85 0.014,-0.204 0.026,-0.346 0.033,-0.43 l 0.039,-0.92 c -0.067,0.024 -0.141,0.048 -0.224,0.074 -0.082,0.024 -0.191,0.057 -0.325,0.093 l -0.425,0.102 c -0.177,0.042 -0.315,0.11 -0.41,0.201 -0.097,0.091 -0.145,0.198 -0.145,0.322 0,0.123 0.043,0.221 0.131,0.294 0.088,0.074 0.205,0.111 0.353,0.111 0.071,0 0.16,-0.007 0.269,-0.023 0.106,-0.015 0.236,-0.038 0.382,-0.069 l -0.311,1.127 z m 7.593,-0.06 c -0.277,0.06 -0.541,0.106 -0.796,0.137 -0.254,0.032 -0.494,0.048 -0.724,0.048 -0.817,0 -1.45,-0.229 -1.904,-0.687 -0.453,-0.456 -0.678,-1.098 -0.678,-1.927 0,-0.92 0.262,-1.642 0.785,-2.164 0.522,-0.521 1.243,-0.781 2.161,-0.781 0.212,0 0.436,0.016 0.673,0.053 0.238,0.034 0.49,0.089 0.755,0.163 l 0.07,1.538 c -0.329,-0.078 -0.567,-0.127 -0.709,-0.152 -0.144,-0.022 -0.271,-0.034 -0.385,-0.034 -0.417,0 -0.736,0.112 -0.955,0.336 -0.218,0.224 -0.328,0.549 -0.328,0.976 0,0.343 0.101,0.608 0.301,0.793 0.201,0.188 0.485,0.281 0.855,0.281 0.173,0 0.348,-0.014 0.531,-0.042 0.18,-0.03 0.376,-0.075 0.589,-0.135 l -0.241,1.597 z m -2.932,2.239 0,-0.64 c 0.272,0.074 0.516,0.129 0.733,0.163 0.216,0.037 0.403,0.053 0.557,0.053 0.173,0 0.299,-0.03 0.381,-0.093 0.083,-0.063 0.124,-0.158 0.124,-0.286 0,-0.125 -0.045,-0.213 -0.136,-0.264 -0.091,-0.054 -0.244,-0.079 -0.463,-0.079 -0.074,0 -0.133,10e-4 -0.178,0.003 -0.042,0.002 -0.084,0.002 -0.121,0.002 l 0,-1.07 0.515,0 0,0.455 0.076,0 c 0.39,0 0.686,0.081 0.885,0.245 0.201,0.163 0.3,0.406 0.3,0.729 0,0.333 -0.11,0.582 -0.332,0.749 -0.222,0.167 -0.56,0.25 -1.009,0.25 -0.172,0 -0.37,-0.019 -0.596,-0.055 -0.225,-0.038 -0.472,-0.091 -0.736,-0.162 z m 6.255,-2.179 c -0.149,0.029 -0.292,0.053 -0.428,0.068 -0.136,0.018 -0.265,0.026 -0.385,0.026 -0.534,0 -0.953,-0.131 -1.254,-0.391 -0.301,-0.261 -0.451,-0.616 -0.451,-1.067 0,-0.477 0.145,-0.854 0.436,-1.13 0.291,-0.275 0.773,-0.489 1.444,-0.635 0.066,-0.017 0.156,-0.038 0.274,-0.062 0.767,-0.164 1.151,-0.358 1.151,-0.58 0,-0.118 -0.047,-0.201 -0.141,-0.255 -0.096,-0.052 -0.251,-0.078 -0.469,-0.078 -0.3,0 -0.617,0.037 -0.949,0.109 -0.332,0.072 -0.664,0.177 -0.994,0.315 l 0.228,-1.498 c 0.305,-0.087 0.63,-0.153 0.973,-0.198 0.343,-0.047 0.701,-0.069 1.075,-0.069 0.752,0 1.31,0.111 1.669,0.331 0.361,0.22 0.539,0.559 0.539,1.021 0,0.074 -0.002,0.159 -0.004,0.251 -0.005,0.095 -0.009,0.195 -0.017,0.298 l -0.119,2.639 c -0.008,0.051 -0.012,0.126 -0.012,0.227 0,0.103 0,0.317 0,0.646 l -1.997,0 c 0.028,-0.362 0.049,-0.647 0.064,-0.85 0.014,-0.204 0.027,-0.346 0.033,-0.43 l 0.039,-0.92 c -0.067,0.024 -0.141,0.048 -0.223,0.074 -0.083,0.024 -0.191,0.057 -0.326,0.093 l -0.425,0.102 c -0.177,0.042 -0.316,0.11 -0.41,0.201 -0.096,0.091 -0.145,0.198 -0.145,0.322 0,0.123 0.043,0.221 0.131,0.294 0.088,0.074 0.205,0.111 0.353,0.111 0.071,0 0.161,-0.007 0.269,-0.023 0.107,-0.015 0.235,-0.038 0.382,-0.069 l -0.311,1.127 z m 2.274,-7.613 c -0.088,0.417 -0.217,0.723 -0.389,0.922 -0.17,0.195 -0.393,0.293 -0.665,0.293 -0.071,0 -0.136,-0.002 -0.196,-0.011 -0.062,-0.008 -0.12,-0.022 -0.177,-0.038 l -0.44,-0.122 c -0.092,-0.026 -0.163,-0.045 -0.211,-0.054 -0.047,-0.009 -0.088,-0.012 -0.121,-0.012 -0.115,0 -0.207,0.033 -0.277,0.097 -0.07,0.063 -0.127,0.167 -0.167,0.308 l -0.559,0 c 0.084,-0.412 0.21,-0.713 0.378,-0.906 0.167,-0.195 0.386,-0.29 0.654,-0.29 0.071,0 0.145,0.004 0.22,0.017 0.076,0.012 0.151,0.029 0.225,0.053 l 0.454,0.128 c 0.043,0.012 0.089,0.022 0.135,0.028 0.044,0.008 0.094,0.011 0.147,0.011 0.109,0 0.198,-0.036 0.271,-0.106 0.072,-0.071 0.128,-0.177 0.164,-0.318 l 0.554,0 z m 4.205,3.58 c -0.317,0 -0.554,0.12 -0.711,0.362 -0.159,0.239 -0.239,0.602 -0.239,1.085 0,0.435 0.073,0.757 0.218,0.964 0.145,0.206 0.368,0.31 0.67,0.31 0.313,0 0.549,-0.116 0.709,-0.346 0.16,-0.231 0.24,-0.57 0.24,-1.017 0,-0.485 -0.07,-0.832 -0.207,-1.043 -0.138,-0.21 -0.366,-0.315 -0.68,-0.315 z m -2.987,1.479 c 0,-0.895 0.273,-1.598 0.818,-2.111 0.548,-0.513 1.296,-0.769 2.245,-0.769 0.91,0 1.613,0.23 2.107,0.69 0.494,0.461 0.742,1.116 0.742,1.963 0,0.902 -0.27,1.609 -0.809,2.124 -0.541,0.515 -1.282,0.772 -2.228,0.772 -0.922,0 -1.631,-0.231 -2.128,-0.69 -0.498,-0.462 -0.747,-1.121 -0.747,-1.979 z"
         id="path4609"
         inkscape:connector-curvature="0" />
      <path
         style="fill:#000000;stroke:#000000;stroke-width:0.21602701"
         d="m 11.8915,291.464 c 0.4088,0.138 0.7768,0.238 1.1078,0.302 0.3324,0.064 0.6488,0.096 0.9521,0.096 0.2116,0 0.3804,-0.04 0.5091,-0.12 0.128,-0.082 0.1913,-0.19 0.1913,-0.324 0,-0.188 -0.248,-0.472 -0.7419,-0.853 -0.0807,-0.064 -0.1433,-0.112 -0.1862,-0.146 l -0.0153,-0.011 c -1.107,-0.87 -1.6598,-1.614 -1.6598,-2.234 0,-0.582 0.243,-1.039 0.7281,-1.369 0.4873,-0.332 1.1638,-0.497 2.0322,-0.497 0.2371,0 0.5026,0.016 0.795,0.049 0.2931,0.035 0.6306,0.09 1.0088,0.167 l 0.128,1.548 c -0.3702,-0.098 -0.6699,-0.166 -0.9004,-0.206 -0.2313,-0.04 -0.427,-0.061 -0.5877,-0.061 -0.2924,0 -0.5128,0.04 -0.659,0.12 -0.1469,0.079 -0.2189,0.197 -0.2189,0.354 0,0.182 0.2705,0.481 0.811,0.894 0.0945,0.074 0.1687,0.131 0.2218,0.172 0.5819,0.449 0.9797,0.831 1.1936,1.141 0.2131,0.312 0.32,0.641 0.32,0.987 0,0.635 -0.2429,1.115 -0.7266,1.442 -0.4837,0.326 -1.2016,0.489 -2.1537,0.489 -0.2793,0 -0.5855,-0.019 -0.9179,-0.058 -0.3324,-0.038 -0.6902,-0.094 -1.0743,-0.169 l -0.1571,-1.713 z m 8.5521,-2.197 c -0.3164,0 -0.5542,0.121 -0.7106,0.362 -0.1586,0.239 -0.2378,0.603 -0.2378,1.086 0,0.434 0.0727,0.756 0.2174,0.963 0.1441,0.206 0.3681,0.309 0.6692,0.309 0.3135,0 0.5491,-0.115 0.7099,-0.346 0.16,-0.23 0.2393,-0.569 0.2393,-1.015 0,-0.486 -0.0691,-0.834 -0.2066,-1.044 -0.1382,-0.21 -0.3651,-0.315 -0.6808,-0.315 z m -2.9872,1.479 c 0,-0.895 0.2742,-1.597 0.8197,-2.111 0.5477,-0.513 1.2947,-0.769 2.2439,-0.769 0.9106,0 1.6132,0.23 2.1071,0.69 0.4946,0.462 0.7419,1.116 0.7419,1.963 0,0.903 -0.2698,1.61 -0.8088,2.124 -0.5404,0.515 -1.283,0.772 -2.2279,0.772 -0.9215,0 -1.6307,-0.23 -2.1282,-0.691 -0.4975,-0.461 -0.7477,-1.121 -0.7477,-1.978 z m 10.6287,2.493 c -0.2749,0.061 -0.5404,0.107 -0.795,0.138 -0.2531,0.033 -0.4946,0.048 -0.7237,0.048 -0.8175,0 -1.4511,-0.229 -1.9042,-0.687 -0.4524,-0.456 -0.6779,-1.098 -0.6779,-1.927 0,-0.92 0.2611,-1.642 0.7848,-2.164 0.5215,-0.521 1.2431,-0.781 2.161,-0.781 0.2116,0 0.4356,0.017 0.6735,0.053 0.2371,0.035 0.4888,0.09 0.7535,0.163 l 0.0706,1.538 c -0.3288,-0.077 -0.5659,-0.127 -0.7092,-0.151 -0.1426,-0.023 -0.2698,-0.035 -0.3855,-0.035 -0.4168,0 -0.7353,0.112 -0.9543,0.336 -0.2182,0.224 -0.3265,0.549 -0.3265,0.976 0,0.343 0.0996,0.608 0.2996,0.794 0.2015,0.188 0.4852,0.281 0.8554,0.281 0.1724,0 0.3477,-0.014 0.5302,-0.044 0.1811,-0.029 0.3775,-0.073 0.5892,-0.134 l -0.2415,1.596 z m 1.2692,-5.6 0.0604,-1.211 2.0489,0 -0.0604,1.211 -2.0489,0 z m 2.0489,0.454 c -0.088,0.755 -0.1534,1.551 -0.1964,2.393 -0.0443,0.842 -0.0654,1.771 -0.0654,2.782 l -2.0933,0 c 0.0844,-0.797 0.1476,-1.625 0.1906,-2.486 0.0436,-0.86 0.0654,-1.758 0.0654,-2.689 l 2.0991,0 z m 2.8047,1.88 1.355,0 0,-0.045 c 0,-0.282 -0.0495,-0.497 -0.1513,-0.646 -0.0996,-0.147 -0.2466,-0.221 -0.4371,-0.221 -0.2051,0 -0.3753,0.079 -0.5099,0.239 -0.1346,0.16 -0.2204,0.384 -0.2567,0.673 z m 2.4693,3.225 c -0.3288,0.07 -0.6473,0.124 -0.9521,0.162 -0.3062,0.036 -0.5993,0.055 -0.8779,0.055 -0.8939,0 -1.5791,-0.219 -2.0526,-0.656 -0.4735,-0.437 -0.7113,-1.066 -0.7113,-1.887 0,-0.942 0.2618,-1.677 0.787,-2.209 0.5251,-0.532 1.2517,-0.797 2.1835,-0.797 0.8,0 1.3957,0.176 1.7885,0.525 0.3913,0.35 0.5877,0.88 0.5877,1.593 0,0.131 -0.0073,0.282 -0.0226,0.451 -0.016,0.17 -0.0378,0.356 -0.0691,0.557 l -3.1406,0.006 c -0.0037,0.017 -0.0066,0.034 -0.0088,0.055 -0.0014,0.02 -0.0014,0.053 -0.0014,0.096 0,0.293 0.1047,0.51 0.3135,0.649 0.208,0.14 0.5338,0.211 0.9761,0.211 0.2291,0 0.4611,-0.014 0.6953,-0.043 0.2364,-0.03 0.4771,-0.075 0.7215,-0.135 l -0.2167,1.367 z m 5.3045,-3.903 c -0.0909,-0.031 -0.1767,-0.052 -0.2597,-0.066 -0.0829,-0.013 -0.1622,-0.02 -0.2393,-0.02 -0.4269,0 -0.7644,0.144 -1.0124,0.433 -0.2466,0.29 -0.3702,0.683 -0.3702,1.18 0,0.36 0.0756,0.642 0.2269,0.847 0.152,0.205 0.3586,0.308 0.6204,0.308 0.2997,0 0.5302,-0.11 0.6939,-0.33 0.1637,-0.22 0.2546,-0.548 0.2749,-0.982 l 0.0655,-1.37 z m -0.2066,3.642 c -0.1789,0.163 -0.384,0.285 -0.6182,0.363 -0.2335,0.077 -0.5077,0.115 -0.819,0.115 -0.7041,0 -1.2554,-0.211 -1.6583,-0.636 -0.4015,-0.423 -0.6023,-1.003 -0.6023,-1.74 0,-0.946 0.299,-1.706 0.8983,-2.285 0.5979,-0.579 1.379,-0.868 2.3449,-0.868 0.0953,0 0.2001,0.006 0.3157,0.016 0.1171,0.01 0.2444,0.024 0.3855,0.044 0.0167,-0.215 0.0291,-0.443 0.0378,-0.685 0.0087,-0.243 0.0138,-0.52 0.0138,-0.833 l 1.9922,0 c -0.0916,1.352 -0.1673,2.588 -0.2291,3.705 -0.0618,1.119 -0.1134,2.163 -0.1549,3.135 l -1.9166,0 0.0102,-0.331 z m 5.3671,0.363 c -0.1484,0.029 -0.2909,0.053 -0.427,0.069 -0.136,0.016 -0.2654,0.025 -0.3854,0.025 -0.5339,0 -0.9521,-0.131 -1.254,-0.39 -0.3011,-0.262 -0.4509,-0.617 -0.4509,-1.068 0,-0.477 0.1447,-0.854 0.4356,-1.13 0.291,-0.275 0.7732,-0.489 1.4445,-0.635 0.0655,-0.017 0.155,-0.038 0.2735,-0.062 0.7666,-0.163 1.1507,-0.358 1.1507,-0.58 0,-0.117 -0.0466,-0.201 -0.1411,-0.255 -0.0953,-0.051 -0.2502,-0.077 -0.4684,-0.077 -0.2997,0 -0.6168,0.036 -0.9492,0.108 -0.3317,0.073 -0.6641,0.177 -0.9928,0.315 l 0.2269,-1.498 c 0.3047,-0.088 0.6299,-0.153 0.9732,-0.197 0.3425,-0.047 0.7004,-0.07 1.0743,-0.07 0.752,0 1.3099,0.11 1.6699,0.331 0.3601,0.22 0.539,0.56 0.539,1.021 0,0.074 -0.0022,0.158 -0.0051,0.251 -0.0036,0.095 -0.0087,0.195 -0.016,0.298 l -0.12,2.639 c -0.0073,0.051 -0.0102,0.126 -0.0102,0.228 0,0.101 0,0.317 0,0.645 l -1.998,0 c 0.0276,-0.363 0.0487,-0.647 0.064,-0.85 0.0138,-0.203 0.0262,-0.346 0.0327,-0.431 l 0.04,-0.919 c -0.0676,0.024 -0.1418,0.048 -0.224,0.074 -0.0829,0.024 -0.1913,0.057 -0.3258,0.093 l -0.4248,0.101 c -0.1775,0.044 -0.3149,0.111 -0.4102,0.202 -0.096,0.092 -0.1448,0.198 -0.1448,0.322 0,0.122 0.0437,0.221 0.131,0.295 0.088,0.074 0.2051,0.11 0.3534,0.11 0.0706,0 0.1601,-0.007 0.2684,-0.022 0.107,-0.016 0.2357,-0.038 0.3826,-0.069 l -0.312,1.126 z m 7.4312,-4.005 c -0.0916,-0.031 -0.1774,-0.052 -0.2603,-0.066 -0.0822,-0.013 -0.1615,-0.02 -0.2393,-0.02 -0.427,0 -0.7645,0.144 -1.0125,0.433 -0.2458,0.29 -0.3695,0.683 -0.3695,1.18 0,0.36 0.0757,0.642 0.2269,0.847 0.1513,0.205 0.3579,0.308 0.6197,0.308 0.2997,0 0.5303,-0.11 0.6939,-0.33 0.1637,-0.22 0.2553,-0.548 0.2757,-0.982 l 0.0654,-1.37 z m -0.2065,3.642 c -0.1789,0.163 -0.3841,0.285 -0.6183,0.363 -0.2342,0.077 -0.5076,0.115 -0.8197,0.115 -0.704,0 -1.2554,-0.211 -1.6576,-0.636 -0.4015,-0.423 -0.603,-1.003 -0.603,-1.74 0,-0.946 0.2997,-1.706 0.899,-2.285 0.5972,-0.579 1.3791,-0.868 2.345,-0.868 0.0946,0 0.2,0.006 0.3149,0.016 0.1171,0.01 0.2444,0.024 0.3855,0.044 0.0175,-0.215 0.0298,-0.443 0.0378,-0.685 0.0088,-0.243 0.0139,-0.52 0.0139,-0.833 l 1.9922,0 c -0.091,1.352 -0.1666,2.588 -0.2292,3.705 -0.0618,1.119 -0.1134,2.163 -0.1549,3.135 l -1.9158,0 0.0102,-0.331 z m 5.1103,-2.964 1.355,0 0,-0.045 c 0,-0.282 -0.0502,-0.497 -0.152,-0.646 -0.0996,-0.147 -0.2458,-0.221 -0.4371,-0.221 -0.2044,0 -0.3753,0.079 -0.5092,0.239 -0.1345,0.16 -0.2211,0.384 -0.2567,0.673 z m 2.4686,3.225 c -0.3288,0.07 -0.6473,0.124 -0.9521,0.162 -0.3062,0.036 -0.5993,0.055 -0.8779,0.055 -0.8939,0 -1.5791,-0.219 -2.0526,-0.656 -0.4735,-0.437 -0.7106,-1.066 -0.7106,-1.887 0,-0.942 0.2611,-1.677 0.7863,-2.209 0.5251,-0.532 1.2517,-0.797 2.1835,-0.797 0.8008,0 1.3965,0.176 1.7892,0.525 0.3906,0.35 0.587,0.88 0.587,1.593 0,0.131 -0.0073,0.282 -0.0226,0.451 -0.0152,0.17 -0.0378,0.356 -0.0691,0.557 l -3.1399,0.006 c -0.0036,0.017 -0.0073,0.034 -0.0087,0.055 -0.0022,0.02 -0.0022,0.053 -0.0022,0.096 0,0.293 0.1055,0.51 0.3135,0.649 0.2087,0.14 0.5339,0.211 0.9761,0.211 0.2291,0 0.4618,-0.014 0.696,-0.043 0.2357,-0.03 0.4772,-0.075 0.7216,-0.135 l -0.2175,1.367 z m 6.9992,-4.072 0.4648,0 c 0.3928,0 0.6771,-0.059 0.8524,-0.174 0.1739,-0.115 0.2619,-0.303 0.2619,-0.563 0,-0.248 -0.0655,-0.422 -0.1964,-0.522 -0.1309,-0.097 -0.3651,-0.148 -0.7004,-0.148 l -0.6016,0 c -0.0029,0.035 -0.008,0.124 -0.0167,0.272 -0.0087,0.149 -0.016,0.278 -0.0225,0.39 l -0.0415,0.745 z m -0.1047,2.841 0.7957,0 c 0.368,0 0.6386,-0.069 0.8139,-0.205 0.1738,-0.136 0.2618,-0.346 0.2618,-0.634 0,-0.258 -0.0742,-0.453 -0.224,-0.581 -0.1498,-0.13 -0.3753,-0.195 -0.675,-0.195 l -0.9331,0 -0.0291,0.565 c -0.0037,0.07 -0.0066,0.153 -0.0088,0.248 -0.0014,0.094 -0.0014,0.244 -0.0014,0.449 l 0,0.353 z m 1.5681,-5.539 c 0.7666,0 1.3245,0.124 1.6722,0.37 0.3477,0.248 0.5215,0.641 0.5215,1.178 0,0.465 -0.1411,0.845 -0.4233,1.145 -0.2822,0.3 -0.6823,0.489 -1.2001,0.569 0.5818,0.054 1.0139,0.216 1.2983,0.486 0.2836,0.269 0.4269,0.653 0.4269,1.15 0,0.629 -0.2138,1.109 -0.6408,1.443 -0.4269,0.333 -1.0452,0.499 -1.8525,0.499 l -3.6004,0 c 0.107,-0.898 0.1913,-1.923 0.2517,-3.074 0.0618,-1.152 0.0982,-2.408 0.112,-3.766 l 3.4345,0 z m 6.8516,3.066 c -0.0364,-0.003 -0.0742,-0.006 -0.1142,-0.008 -0.0378,-0.002 -0.096,-0.002 -0.1738,-0.002 -0.3353,0 -0.6125,0.068 -0.8278,0.2 -0.2152,0.132 -0.3687,0.332 -0.4633,0.597 -0.064,0.183 -0.112,0.453 -0.1447,0.813 -0.0313,0.36 -0.0582,1.085 -0.0829,2.174 l -2.033,0 c 0.0808,-0.783 0.1426,-1.569 0.1841,-2.36 0.0414,-0.79 0.064,-1.58 0.064,-2.371 l 0,-0.525 1.7849,0 -0.0408,0.731 c 0.1826,-0.306 0.3906,-0.528 0.6234,-0.667 0.2342,-0.14 0.5164,-0.21 0.8452,-0.21 0.0632,0 0.16,0.005 0.2873,0.015 0.0138,0.004 0.024,0.005 0.0312,0.005 l 0.0604,1.608 z m 2.8599,3.806 c -0.1484,0.029 -0.2909,0.053 -0.4269,0.069 -0.1361,0.016 -0.2655,0.025 -0.3863,0.025 -0.5338,0 -0.9521,-0.131 -1.2532,-0.39 -0.3011,-0.262 -0.4509,-0.617 -0.4509,-1.068 0,-0.477 0.1447,-0.854 0.4357,-1.13 0.2909,-0.275 0.7731,-0.489 1.4444,-0.635 0.0655,-0.017 0.155,-0.038 0.2735,-0.062 0.7667,-0.163 1.15,-0.358 1.15,-0.58 0,-0.117 -0.0466,-0.201 -0.1411,-0.255 -0.0946,-0.051 -0.2495,-0.077 -0.4685,-0.077 -0.2989,0 -0.616,0.036 -0.9484,0.108 -0.3324,0.073 -0.6648,0.177 -0.9936,0.315 l 0.2277,-1.498 c 0.3048,-0.088 0.6299,-0.153 0.9725,-0.197 0.3425,-0.047 0.7011,-0.07 1.0742,-0.07 0.7528,0 1.3107,0.11 1.6708,0.331 0.3593,0.22 0.5389,0.56 0.5389,1.021 0,0.074 -0.0022,0.158 -0.0058,0.251 -0.0029,0.095 -0.008,0.195 -0.0153,0.298 l -0.1207,2.639 c -0.0066,0.051 -0.0102,0.126 -0.0102,0.228 0,0.101 0,0.317 0,0.645 l -1.9973,0 c 0.0277,-0.363 0.048,-0.647 0.064,-0.85 0.0138,-0.203 0.0255,-0.346 0.0327,-0.431 l 0.0393,-0.919 c -0.0669,0.024 -0.1411,0.048 -0.2233,0.074 -0.0829,0.024 -0.1913,0.057 -0.3258,0.093 l -0.4255,0.101 c -0.1768,0.044 -0.3149,0.111 -0.4095,0.202 -0.0967,0.092 -0.1447,0.198 -0.1447,0.322 0,0.122 0.0429,0.221 0.1309,0.295 0.088,0.074 0.2051,0.11 0.3527,0.11 0.0706,0 0.1601,-0.007 0.2692,-0.022 0.1061,-0.016 0.2356,-0.038 0.3818,-0.069 l -0.3113,1.126 z m 3.3109,-1.678 c 0.3956,0.12 0.7164,0.202 0.9608,0.25 0.2444,0.05 0.4524,0.074 0.6284,0.074 0.1775,0 0.3135,-0.027 0.4081,-0.081 0.0945,-0.053 0.1411,-0.131 0.1411,-0.232 0,-0.103 -0.195,-0.288 -0.5856,-0.55 -0.0501,-0.034 -0.0894,-0.059 -0.1156,-0.075 -0.5492,-0.363 -0.9005,-0.656 -1.0554,-0.875 -0.1549,-0.22 -0.232,-0.477 -0.232,-0.769 0,-0.487 0.184,-0.858 0.5528,-1.109 0.368,-0.253 0.9033,-0.379 1.6059,-0.379 0.3237,0 0.6234,0.016 0.9041,0.049 0.2793,0.03 0.539,0.08 0.7819,0.147 l 0.1259,1.422 c -0.2532,-0.07 -0.4844,-0.122 -0.6939,-0.153 -0.2102,-0.032 -0.4139,-0.048 -0.6081,-0.048 -0.1484,0 -0.2655,0.026 -0.3513,0.077 -0.0858,0.054 -0.1287,0.123 -0.1287,0.211 0,0.127 0.1549,0.287 0.4647,0.478 0.0735,0.047 0.1288,0.085 0.1652,0.111 0.4684,0.299 0.7884,0.569 0.9622,0.811 0.1739,0.241 0.2604,0.513 0.2604,0.819 0,0.532 -0.1898,0.933 -0.5666,1.207 -0.3789,0.272 -0.9368,0.408 -1.6721,0.408 -0.3135,0 -0.6234,-0.021 -0.9281,-0.06 -0.3062,-0.042 -0.6045,-0.1 -0.8932,-0.178 l -0.1309,-1.555 z m 5.1168,-3.983 0.0604,-1.211 2.0489,0 -0.0604,1.211 -2.0489,0 z m 2.0489,0.454 c -0.0872,0.755 -0.1527,1.551 -0.1963,2.393 -0.0444,0.842 -0.0655,1.771 -0.0655,2.782 l -2.0933,0 c 0.0844,-0.797 0.1484,-1.625 0.1913,-2.486 0.0429,-0.86 0.0655,-1.758 0.0655,-2.689 l 2.0983,0 z m 3.1582,-1.665 c -0.1135,1.39 -0.2015,2.641 -0.2619,3.755 -0.0603,1.116 -0.0909,2.075 -0.0909,2.879 l 0,0.206 -2.0736,0 c 0.1105,-1.566 0.1949,-2.895 0.2516,-3.987 0.0589,-1.092 0.0931,-2.042 0.1069,-2.853 l 2.0679,0 z m 2.7341,3.545 1.355,0 0,-0.045 c 0,-0.282 -0.0502,-0.497 -0.1513,-0.646 -0.1004,-0.147 -0.2466,-0.221 -0.4379,-0.221 -0.2043,0 -0.3753,0.079 -0.5091,0.239 -0.1346,0.16 -0.2204,0.384 -0.2567,0.673 z m 2.4693,3.225 c -0.3295,0.07 -0.6474,0.124 -0.9528,0.162 -0.3062,0.036 -0.5986,0.055 -0.8779,0.055 -0.8932,0 -1.5784,-0.219 -2.0519,-0.656 -0.4742,-0.437 -0.7113,-1.066 -0.7113,-1.887 0,-0.942 0.2618,-1.677 0.787,-2.209 0.5251,-0.532 1.2517,-0.797 2.1827,-0.797 0.8008,0 1.3965,0.176 1.7893,0.525 0.3906,0.35 0.587,0.88 0.587,1.593 0,0.131 -0.0066,0.282 -0.0226,0.451 -0.0153,0.17 -0.0378,0.356 -0.0684,0.557 l -3.1406,0.006 c -0.0037,0.017 -0.0073,0.034 -0.0088,0.055 -0.0014,0.02 -0.0014,0.053 -0.0014,0.096 0,0.293 0.1047,0.51 0.3127,0.649 0.2088,0.14 0.5339,0.211 0.9769,0.211 0.2283,0 0.4611,-0.014 0.6953,-0.043 0.2357,-0.03 0.4771,-0.075 0.7215,-0.135 l -0.2167,1.367 z m 1.7169,-5.559 0.06,-1.211 2.049,0 -0.06,1.211 -2.049,0 z m 2.049,0.454 c -0.088,0.755 -0.154,1.551 -0.197,2.393 -0.045,0.842 -0.065,1.771 -0.065,2.782 l -2.094,0 c 0.084,-0.797 0.148,-1.625 0.191,-2.486 0.043,-0.86 0.065,-1.758 0.065,-2.689 l 2.1,0 z m 4.54,1.401 c -0.037,-0.003 -0.075,-0.006 -0.114,-0.008 -0.038,-0.002 -0.097,-0.002 -0.174,-0.002 -0.336,0 -0.613,0.068 -0.828,0.2 -0.215,0.132 -0.368,0.332 -0.463,0.597 -0.064,0.183 -0.112,0.453 -0.144,0.813 -0.032,0.36 -0.059,1.085 -0.083,2.174 l -2.034,0 c 0.081,-0.783 0.143,-1.569 0.184,-2.36 0.041,-0.79 0.064,-1.58 0.064,-2.371 l 0,-0.525 1.786,0 -0.042,0.731 c 0.183,-0.306 0.391,-0.528 0.623,-0.667 0.235,-0.14 0.517,-0.21 0.846,-0.21 0.064,0 0.16,0.005 0.288,0.015 0.014,0.004 0.024,0.005 0.03,0.005 l 0.061,1.608 z m 2.86,3.806 c -0.148,0.029 -0.291,0.053 -0.427,0.069 -0.136,0.016 -0.265,0.025 -0.386,0.025 -0.534,0 -0.952,-0.131 -1.254,-0.39 -0.301,-0.262 -0.451,-0.617 -0.451,-1.068 0,-0.477 0.145,-0.854 0.436,-1.13 0.291,-0.275 0.773,-0.489 1.444,-0.635 0.066,-0.017 0.155,-0.038 0.275,-0.062 0.765,-0.163 1.149,-0.358 1.149,-0.58 0,-0.117 -0.046,-0.201 -0.141,-0.255 -0.094,-0.051 -0.249,-0.077 -0.468,-0.077 -0.3,0 -0.616,0.036 -0.948,0.108 -0.333,0.073 -0.665,0.177 -0.994,0.315 l 0.227,-1.498 c 0.305,-0.088 0.631,-0.153 0.973,-0.197 0.343,-0.047 0.701,-0.07 1.074,-0.07 0.752,0 1.31,0.11 1.67,0.331 0.36,0.22 0.539,0.56 0.539,1.021 0,0.074 -0.001,0.158 -0.005,0.251 -0.003,0.095 -0.009,0.195 -0.015,0.298 l -0.121,2.639 c -0.007,0.051 -0.01,0.126 -0.01,0.228 0,0.101 0,0.317 0,0.645 l -1.997,0 c 0.027,-0.363 0.048,-0.647 0.063,-0.85 0.014,-0.203 0.026,-0.346 0.033,-0.431 l 0.04,-0.919 c -0.068,0.024 -0.141,0.048 -0.224,0.074 -0.083,0.024 -0.192,0.057 -0.325,0.093 l -0.426,0.101 c -0.177,0.044 -0.315,0.111 -0.41,0.202 -0.096,0.092 -0.144,0.198 -0.144,0.322 0,0.122 0.043,0.221 0.131,0.295 0.087,0.074 0.204,0.11 0.353,0.11 0.07,0 0.16,-0.007 0.268,-0.022 0.107,-0.016 0.236,-0.038 0.383,-0.069 l -0.312,1.126 z"
         id="path4611"
         inkscape:connector-curvature="0" />
      <path
         style="fill:#cccccc;stroke:#000000;stroke-width:0.21602701"
         d="m 114.158,270.693 c 3.706,-4.946 5.806,-10.575 5.806,-16.539 0,-19.597 -22.6738,-35.581 -50.4738,-35.581 -16.0532,0 -30.3975,5.33 -39.6531,13.608 9.2877,-4.906 17.7419,-8.099 32.4738,-8.134 23.399,-0.054 51.9151,14.556 52.3401,41.055 0.03,1.895 -0.168,3.762 -0.493,5.591 z"
         id="path4613"
         inkscape:connector-curvature="0" />
      <path
         style="fill:#cccccc;stroke:#000000;stroke-width:2.00037599"
         d="m 119.456,229.757 c -3.655,19.983 -26.6104,35.462 -54.2314,35.462 -30.1495,0 -54.7395,-18.442 -54.7395,-41.054 0,-13.45 8.7003,-25.424 22.096,-32.92 -6.978,6.058 -11.1481,13.692 -11.1481,21.972 0,19.598 23.3605,35.581 52.0025,35.581 19.9247,0 37.2935,-7.735 46.0205,-19.041 z"
         id="path4615"
         inkscape:connector-curvature="0" />
      <path
         style="fill:#00ccff;stroke:#000000;stroke-width:2.00065947"
         d="m 119.456,237.891 c -3.655,19.983 -26.6104,35.462 -54.2314,35.462 -30.1495,0 -54.7395,-18.442 -54.7395,-41.054 0,-13.45 8.7003,-25.425 22.096,-32.92 -6.978,6.057 -11.1481,13.692 -11.1481,21.972 0,19.597 23.3605,35.581 52.0025,35.581 19.9247,0 37.2935,-7.735 46.0205,-19.041 z"
         id="path4617"
         inkscape:connector-curvature="0" />
      <path
         style="fill:#ffcc00;stroke:#000000;stroke-width:2.00065947"
         d="m 32.5811,191.245 -22.096,0 0,32.92 c 0,-13.45 8.7003,-25.424 22.096,-32.92 z"
         id="path4619"
         inkscape:connector-curvature="0" />
      <path
         style="fill:#000000;stroke:#000000;stroke-width:0.21602701"
         d="m 10.0988,223.929 0.7887,0 0,8.2 -0.7887,0 0,-8.2 0,0 z"
         id="path4621"
         inkscape:connector-curvature="0" />
      <path
         style="fill:#000000;stroke:#000000;stroke-width:0.21602701"
         d="m 10.0988,223.929 0.7887,0 0,8.2 -0.7887,0 0,-8.2 0,0 z"
         id="path4623"
         inkscape:connector-curvature="0" />
      <path
         style="fill:#ffffff;stroke:#000000;stroke-width:2.06104493"
         d="m 114.158,278.827 c 3.706,-4.946 5.806,-10.575 5.806,-16.54 0,-19.597 -22.6738,-35.58 -50.4738,-35.58 -16.0532,0 -30.3975,5.33 -39.6531,13.608 9.2877,-4.907 17.7419,-8.1 32.4738,-8.134 23.399,-0.054 51.9151,14.556 52.3401,41.054 0.03,1.896 -0.168,3.763 -0.493,5.592 z"
         id="path4625"
         inkscape:connector-curvature="0" />
    </g>
  </g>
</svg>
