<?xml version="1.0" encoding="UTF-8" standalone="no"?>
<svg
   xmlns:dc="http://purl.org/dc/elements/1.1/"
   xmlns:cc="http://creativecommons.org/ns#"
   xmlns:rdf="http://www.w3.org/1999/02/22-rdf-syntax-ns#"
   xmlns:svg="http://www.w3.org/2000/svg"
   xmlns="http://www.w3.org/2000/svg"
   viewBox="0 0 511.5617 173.93359"
   height="173.93359"
   width="511.56171"
   xml:space="preserve"
   id="svg2"
   version="1.1"><metadata
     id="metadata8"><rdf:RDF><cc:Work
         rdf:about=""><dc:format>image/svg+xml</dc:format><dc:type
           rdf:resource="http://purl.org/dc/dcmitype/StillImage" /><dc:title></dc:title></cc:Work></rdf:RDF></metadata><defs
     id="defs6"><clipPath
       id="clipPath22"
       clipPathUnits="userSpaceOnUse"><path
         id="path20"
         d="M 0,595.28 H 841.89 V 0 H 0 Z" /></clipPath></defs><g
     transform="matrix(1.3333333,0,0,-1.3333333,-305.30919,491.19919)"
     id="g10"><g
       transform="translate(547.1787,261.7185)"
       id="g12"><path
         id="path14"
         style="fill:#ef454b;fill-opacity:1;fill-rule:nonzero;stroke:none"
         d="M 0,0 H 2.989 V -9.785 H 13.842 V 0 h 2.954 v -23.343 h -2.954 v 10.995 H 2.989 V -23.343 H 0 Z" /></g><g
       id="g16"><g
         clip-path="url(#clipPath22)"
         id="g18"><g
           transform="translate(578.7793,250.0476)"
           id="g24"><path
             id="path26"
             style="fill:#ef454b;fill-opacity:1;fill-rule:nonzero;stroke:none"
             d="M 0,0 C 4.092,0 6.049,1.494 6.049,4.804 6.049,8.184 4.021,9.287 0,9.287 H -3.808 V 0 Z m -6.797,11.671 h 7.188 c 5.16,0 8.611,-1.743 8.611,-6.867 0,-4.911 -3.523,-7.224 -8.611,-7.224 h -4.199 v -9.252 h -2.989 z" /></g><g
           transform="translate(603.1572,262.1452)"
           id="g28"><path
             id="path30"
             style="fill:#ef454b;fill-opacity:1;fill-rule:nonzero;stroke:none"
             d="M 0,0 C 2.775,0 4.981,-1.352 6.369,-2.882 L 4.696,-4.768 c -1.245,1.317 -2.739,2.17 -4.661,2.17 -4.448,0 -7.401,-3.629 -7.401,-9.429 0,-5.871 2.811,-9.572 7.259,-9.572 2.206,0 3.843,0.925 5.337,2.598 l 1.673,-1.815 c -1.815,-2.135 -4.128,-3.38 -7.082,-3.38 -5.871,0 -10.248,4.483 -10.248,12.098 C -10.427,-4.59 -5.979,0 0,0" /></g><g
           transform="translate(312.1543,326.6892)"
           id="g32"><path
             id="path34"
             style="fill:#000000;fill-opacity:1;fill-rule:nonzero;stroke:none"
             d="m 0,0 h 7.254 l 7.88,-23.596 c 1.2,-4.112 2.571,-8.3 3.846,-12.231 h 0.343 c 1.199,3.931 2.57,8.119 3.77,12.231 L 30.955,0 h 6.929 L 23.168,-41.558 h -8.204 z" /></g><g
           transform="translate(384.0762,308.9948)"
           id="g36"><path
             id="path38"
             style="fill:#000000;fill-opacity:1;fill-rule:nonzero;stroke:none"
             d="M 0,0 C 0,8.461 -3.75,13.164 -10.261,13.164 -16.067,13.164 -21.378,8.375 -22.235,0 Z m -10.432,18.723 c 10.603,0 16.6,-7.606 16.6,-19.494 0,-1.457 -0.095,-2.828 -0.266,-3.855 H -22.14 c 0.515,-8.976 5.902,-14.62 13.84,-14.62 3.941,0 7.272,1.284 10.357,3.254 l 2.474,-4.626 c -3.579,-2.303 -8.034,-4.273 -13.669,-4.273 -11.117,0 -19.931,8.128 -19.931,21.722 0,13.601 9.156,21.892 18.637,21.892" /></g><g
           transform="translate(400.7715,326.6892)"
           id="g40"><path
             id="path42"
             style="fill:#000000;fill-opacity:1;fill-rule:nonzero;stroke:none"
             d="m 0,0 h 5.806 l 0.61,-7.52 h 0.247 c 2.818,5.217 7.101,8.548 11.803,8.548 1.789,0 3.084,-0.257 4.455,-0.856 l -1.371,-6.15 c -1.371,0.419 -2.322,0.676 -4.017,0.676 -3.522,0 -7.71,-2.56 -10.527,-9.575 V -41.558 H 0 Z" /></g><g
           transform="translate(430.6211,294.5359)"
           id="g44"><path
             id="path46"
             style="fill:#000000;fill-opacity:1;fill-rule:nonzero;stroke:none"
             d="m 0,0 c 3.579,-2.903 7.272,-4.959 12.222,-4.959 5.482,0 8.205,2.912 8.205,6.501 0,4.273 -4.949,6.159 -9.48,7.872 -5.902,2.131 -12.413,4.959 -12.413,11.964 0,6.673 5.312,11.804 14.297,11.804 5.217,0 9.747,-2.133 12.907,-4.703 l -3.332,-4.445 c -2.836,2.142 -5.824,3.674 -9.499,3.674 -5.216,0 -7.614,-2.817 -7.614,-5.987 0,-3.845 4.53,-5.388 9.232,-7.176 5.997,-2.229 12.661,-4.712 12.661,-12.575 0,-6.757 -5.389,-12.402 -15.211,-12.402 -5.902,0 -11.555,2.484 -15.478,5.73 z" /></g><g
           transform="translate(479.7178,289.7487)"
           id="g48"><path
             id="path50"
             style="fill:#000000;fill-opacity:1;fill-rule:nonzero;stroke:none"
             d="M 0,0 C 4.017,0 7.349,1.97 11.364,5.559 V 17.104 C -2.57,15.391 -7.272,11.974 -7.272,6.671 -7.272,1.97 -4.112,0 0,0 m 11.364,21.721 c 0,5.301 -1.789,10.432 -8.547,10.432 -4.873,0 -9.137,-2.218 -12.392,-4.445 l -2.819,4.873 c 3.847,2.484 9.653,5.388 16.334,5.388 10.166,0 14.45,-6.759 14.45,-17.105 V -4.617 h -5.826 l -0.59,4.959 h -0.17 C 7.786,-2.904 3.16,-5.645 -1.961,-5.645 c -7.025,0 -12.24,4.359 -12.24,11.803 0,9.062 7.881,13.602 25.565,15.563" /></g><g
           transform="translate(512.5752,320.9592)"
           id="g52"><path
             id="path54"
             style="fill:#000000;fill-opacity:1;fill-rule:nonzero;stroke:none"
             d="M 0,0 H -6.168 V 5.301 L 0.324,5.73 1.181,17.362 H 7.082 V 5.73 H 18.295 V 0 H 7.082 v -23.083 c 0,-5.129 1.637,-8.042 6.416,-8.042 1.466,0 3.331,0.599 4.702,1.113 l 1.37,-5.301 c -2.303,-0.771 -5.121,-1.542 -7.69,-1.542 C 2.989,-36.855 0,-31.21 0,-22.997 Z" /></g><g
           transform="translate(539.4375,326.6892)"
           id="g56"><path
             id="path58"
             style="fill:#000000;fill-opacity:1;fill-rule:nonzero;stroke:none"
             d="m 0,0 h 7.081 v -25.396 c 0,-7.786 2.322,-11.117 7.786,-11.117 4.283,0 7.195,2.142 11.117,7.015 V 0 h 7.101 v -41.558 h -5.806 l -0.609,6.501 h -0.247 c -3.846,-4.53 -8.054,-7.528 -13.689,-7.528 C 3.921,-42.585 0,-36.94 0,-26.338 Z" /></g><g
           transform="translate(585.4492,294.5359)"
           id="g60"><path
             id="path62"
             style="fill:#000000;fill-opacity:1;fill-rule:nonzero;stroke:none"
             d="m 0,0 c 3.598,-2.903 7.272,-4.959 12.24,-4.959 5.464,0 8.205,2.912 8.205,6.501 0,4.273 -4.967,6.159 -9.499,7.872 -5.901,2.131 -12.393,4.959 -12.393,11.964 0,6.673 5.292,11.804 14.278,11.804 5.215,0 9.747,-2.133 12.906,-4.703 l -3.331,-4.445 c -2.818,2.142 -5.806,3.674 -9.48,3.674 -5.216,0 -7.614,-2.817 -7.614,-5.987 0,-3.845 4.53,-5.388 9.233,-7.176 5.976,-2.229 12.659,-4.712 12.659,-12.575 0,-6.757 -5.388,-12.402 -15.23,-12.402 -5.902,0 -11.537,2.484 -15.477,5.73 z" /></g><g
           transform="translate(247.3149,285.1316)"
           id="g64"><path
             id="path66"
             style="fill:#ef454b;fill-opacity:1;fill-rule:nonzero;stroke:none"
             d="m 0,0 11.499,-26.119 29.85,67.753 H 18.58 Z" /></g><g
           transform="translate(228.9819,326.7654)"
           id="g68"><path
             id="path70"
             style="fill:#ef454b;fill-opacity:1;fill-rule:nonzero;stroke:none"
             d="m 0,0 11.499,-26.119 29.85,67.753 H 18.581 Z" /></g></g></g></g></svg>