<svg xmlns="http://www.w3.org/2000/svg" viewBox="0 0 300 104" width="128" height="39">
    <path fill="#4285F4" d="M39.27 75.47C18.48 75.47 1 58.55 1 37.75S18.48.04 39.27.04c11.5 0 19.69 4.51 25.85 10.4l-7.27 7.27c-4.42-4.14-10.4-7.36-18.58-7.36-15.18 0-27.05 12.24-27.05 27.42 0 15.18 11.87 27.41 27.05 27.41 9.84 0 15.46-3.96 19.04-7.54 2.94-2.94 4.88-7.18 5.61-12.97H39v-10.3h34.95c.37 1.84.55 4.05.55 6.44 0 7.73-2.12 17.3-8.92 24.1-6.62 6.88-15.09 10.56-26.31 10.56z"/>
    <path fill="#EA4335" d="M126.85 51.19c0 13.98-10.93 24.29-24.35 24.29s-24.35-10.3-24.35-24.29c0-14.08 10.93-24.29 24.35-24.29s24.35 10.21 24.35 24.29zm-10.66 0c0-8.74-6.34-14.72-13.69-14.72s-13.69 5.98-13.69 14.72c0 8.65 6.34 14.72 13.69 14.72 7.35-.01 13.69-6.08 13.69-14.72z"/>
    <path fill="#FBBC05" d="M179.85 51.19c0 13.98-10.93 24.29-24.35 24.29-13.42 0-24.35-10.3-24.35-24.29 0-14.08 10.93-24.29 24.35-24.29 13.42 0 24.35 10.21 24.35 24.29zm-10.66 0c0-8.74-6.34-14.72-13.69-14.72s-13.69 5.98-13.69 14.72c0 8.65 6.34 14.72 13.69 14.72s13.69-6.08 13.69-14.72z"/>
    <path fill="#4285F4" d="M230.55 28.37v43.61c0 17.94-10.58 25.3-23.09 25.3-11.78 0-18.86-7.91-21.53-14.35l9.29-3.86c1.66 3.96 5.7 8.65 12.24 8.65 8 0 12.97-4.97 12.97-14.26v-3.5h-.37c-2.39 2.94-6.99 5.52-12.79 5.52-12.14 0-23.28-10.58-23.28-24.19 0-13.71 11.13-24.38 23.28-24.38 5.79 0 10.4 2.58 12.79 5.43h.37v-3.96h10.12zm-9.38 22.91c0-8.56-5.7-14.81-12.97-14.81-7.36 0-13.52 6.26-13.52 14.81 0 8.46 6.16 14.63 13.52 14.63 7.26-.01 12.97-6.17 12.97-14.63z"/>
    <path fill="#34A853" d="M248.9 2.61V74h-10.67V2.61h10.67z"/>
    <path fill="#EA4335" d="M290.26 59.19l8.28 5.52c-2.67 3.96-9.11 10.76-20.24 10.76-13.8 0-24.1-10.67-24.1-24.29 0-14.44 10.4-24.29 22.91-24.29 12.6 0 18.77 10.03 20.79 15.46l1.1 2.76-32.47 13.43c2.48 4.88 6.35 7.36 11.78 7.36 5.42 0 9.19-2.66 11.95-6.71zm-25.48-8.74l21.71-9.02c-1.2-3.04-4.78-5.15-9.02-5.15-5.42 0-12.97 4.79-12.69 14.17z"/>
    <path fill="none" d="M0 0h300v104H0z"/>
</svg>
