<?xml version="1.0" encoding="UTF-8" standalone="no"?>
<svg
   xmlns:dc="http://purl.org/dc/elements/1.1/"
   xmlns:cc="http://creativecommons.org/ns#"
   xmlns:rdf="http://www.w3.org/1999/02/22-rdf-syntax-ns#"
   xmlns:svg="http://www.w3.org/2000/svg"
   xmlns="http://www.w3.org/2000/svg"
   xmlns:sodipodi="http://sodipodi.sourceforge.net/DTD/sodipodi-0.dtd"
   xmlns:inkscape="http://www.inkscape.org/namespaces/inkscape"
   viewBox="0 0 190.297 54.553194"
   height="54.553192"
   width="190.297"
   xml:space="preserve"
   id="svg2"
   version="1.1"
   inkscape:version="0.91 r13725"
   sodipodi:docname="newroute.svg"><sodipodi:namedview
     pagecolor="#ffffff"
     bordercolor="#666666"
     borderopacity="1"
     objecttolerance="10"
     gridtolerance="10"
     guidetolerance="10"
     inkscape:pageopacity="0"
     inkscape:pageshadow="2"
     inkscape:window-width="640"
     inkscape:window-height="480"
     id="namedview3396"
     showgrid="false"
     fit-margin-top="0"
     fit-margin-left="0"
     fit-margin-right="0"
     fit-margin-bottom="0"
     inkscape:zoom="2.5766342"
     inkscape:cx="73.351503"
     inkscape:cy="70.426992"
     inkscape:current-layer="svg2" /><metadata
     id="metadata8"><rdf:RDF><cc:Work
         rdf:about=""><dc:format>image/svg+xml</dc:format><dc:type
           rdf:resource="http://purl.org/dc/dcmitype/StillImage" /><dc:title></dc:title></cc:Work></rdf:RDF></metadata><defs
     id="defs6" /><g
     transform="matrix(0.51640416,0,0,-0.51640416,-58.552899,244.65442)"
     id="g10"><g
       id="g12"><g
         id="g14"><path
           id="path16"
           style="fill:#024ea2;fill-opacity:1;fill-rule:nonzero;stroke:none"
           d="m 242.8047,434.9529 12.2051,37.5919 4.8821,0 -14.6463,-43.5725 -5.2481,0 -13.1207,37.2257 -0.1216,0 -12.9376,-37.2257 -5.2483,0 -13.0856,39.4226 -29.8378,0 0,-14.768 29.0486,0 0,-4.1499 -29.0486,0 0,-16.355 30.6352,0 0,-4.1497 -35.1508,0 0,43.5725 c 12.6803,0 25.3608,0 38.041,0 l 12.0832,-37.5919 0.1216,0 12.8767,37.5919 5.5533,0 12.8764,-37.5919 z m 200.7607,-5.9806 0,36.7379 -13.9465,0 0,-36.7379 -9.1539,0 0,36.7379 -12.9705,0 0,-18.0029 c 0,-5.6551 -0.9153,-9.8864 -2.7462,-12.6935 -3.2139,-4.8413 -9.4181,-7.2621 -18.6126,-7.2621 -9.1542,0 -15.338,2.4208 -18.5522,7.2621 -1.8309,2.8071 -2.7459,7.0384 -2.7459,12.6935 l 0,24.8375 9.1539,0 0,-24.5937 c 0,-4.1902 0.529,-7.1804 1.5866,-8.9705 1.7898,-2.929 5.3093,-4.394 10.5576,-4.394 5.2889,0 8.8282,1.465 10.6183,4.394 1.0576,1.7901 1.5869,4.7803 1.5869,8.9705 l 0,24.5937 c 27.6868,0 55.3736,0 83.0607,0 l 0,-6.8346 -28.682,0 0,-10.9851 27.5224,0 0,-6.8346 -27.5224,0 0,-12.0833 29.1702,0 0,-6.8349 z m -154.4653,24.044 c 2.6442,0 4.6094,0.4802 5.8887,1.4341 1.2799,0.9541 1.9222,2.6141 1.9222,4.9739 0,4.1902 -2.6082,6.2859 -7.8109,6.2859 l -22.9484,0 2.2977,6.8346 23.2745,0 c 9.8047,0 14.7072,-3.9467 14.7072,-11.8392 0,-2.7258 -0.6916,-5.0241 -2.0749,-6.8956 -1.2609,-1.7087 -2.9696,-2.9089 -5.1259,-3.6005 l 0,-0.1222 c 2.4409,-0.5289 4.1494,-1.8513 5.1259,-3.9665 0.8138,-1.7904 1.2206,-4.394 1.2206,-7.8114 0,-4.5973 0.6103,-7.7094 1.8309,-9.3371 l -9.8861,0 c -0.7322,1.3425 -1.0985,3.5396 -1.0985,6.5908 0,3.5802 -0.4402,6.1189 -1.2818,7.6281 -1.1072,1.9854 -3.1977,2.9905 -6.2855,2.9905 l -26.7523,0 2.2972,6.8346 z m 45.9851,-18.4297 c 5.0451,0 9.0116,1.5055 11.9001,4.5159 2.8071,2.8885 4.2109,6.7739 4.2109,11.6561 0,4.8818 -1.4242,8.7976 -4.2719,11.7476 -2.8479,2.9494 -6.794,4.4243 -11.8391,4.4243 -5.0446,0 -8.9912,-1.4749 -11.8389,-4.4243 -2.848,-2.95 -4.2718,-6.8658 -4.2718,-11.7476 0,-4.8822 1.4037,-8.7676 4.2105,-11.6561 2.8885,-3.0104 6.8556,-4.5159 11.9002,-4.5159 z m 0,-6.8349 c -8.6658,0 -15.236,2.2986 -19.711,6.8959 -3.9467,4.0685 -5.9196,9.4388 -5.9196,16.111 0,6.6721 1.9729,12.0421 5.9196,16.1107 4.475,4.5972 11.0452,6.8961 19.711,6.8961 8.6658,0 15.2365,-2.2989 19.7115,-6.8961 3.9461,-4.0686 5.9196,-9.4386 5.9196,-16.1107 0,-6.6722 -1.9735,-12.0425 -5.9196,-16.111 -4.475,-4.5973 -11.0457,-6.8959 -19.7115,-6.8959 z m -221.6991,1.2206 0,43.5725 5.4516,0 30.5535,-37.226 0,0 0,37.226 4.5159,0 0,-43.5725 -5.2688,0 -30.7366,37.2257 0,0 0,-37.2257 z"
           inkscape:connector-curvature="0" /><path
           id="path18"
           style="fill:#ed1c24;fill-opacity:1;fill-rule:evenodd;stroke:none"
           d="m 262.3269,472.5451 6.1223,0 -14.6458,-43.5731 -6.1225,0 z"
           inkscape:connector-curvature="0" /></g><path
         id="path20"
         style="fill:#58595b;fill-opacity:1;fill-rule:nonzero;stroke:none"
         d="m 115.2241,371.4486 0,6.2022 7.6317,0 0,-6.2022 1.857,0 0,13.7593 -1.857,0 0,-5.849 -7.6317,0 0,5.849 -1.8383,0 0,-13.7593 z m 13.765,11.5313 0,2.1166 -1.8198,0 0,-2.1166 z m -0.0371,-11.5313 0,10.3056 -1.7456,0 0,-10.3056 z m 7.9342,10.3614 c -0.5199,0.1302 -1.1325,0.1857 -1.6895,0.1857 -2.4327,0 -4.2154,-1.2625 -4.2154,-3.4724 0,-1.2442 0.5757,-2.1725 1.5228,-2.7482 -0.4827,-0.3901 -0.7798,-0.9097 -0.7798,-1.4298 0,-0.5199 0.2783,-1.0769 0.947,-1.3368 -1.5786,-0.2971 -2.4324,-1.2442 -2.4324,-2.4511 0,-1.4854 1.4295,-2.4325 4.1777,-2.4325 4.735,0 6.2949,1.5412 6.2949,3.3237 0,1.8754 -1.597,2.4511 -5.1621,2.5625 -2.0056,0.0558 -2.2655,0.2228 -2.2655,0.7055 0,0.2228 0.1114,0.4272 0.2599,0.6316 0.5015,-0.1485 1.0585,-0.2228 1.6529,-0.2228 2.488,0 4.2891,1.2067 4.2891,3.3607 0,1.2813 -0.5386,2.0798 -1.5412,2.6371 l -0.0184,0.0184 2.1169,0 -0.4272,1.6898 z m -1.6895,-5.2735 c -1.4856,0 -2.5254,0.6687 -2.5254,1.9681 0,1.2812 1.0398,1.9315 2.5254,1.9315 1.5596,0 2.5807,-0.6503 2.5807,-1.9315 0,-1.2994 -1.0211,-1.9681 -2.5807,-1.9681 z m -0.6871,-6.9818 c -1.5599,0 -2.4511,0.4456 -2.4511,1.374 0,1.114 1.4298,1.6713 2.9154,1.6342 3.045,-0.0746 3.9733,-0.3158 3.9733,-1.2813 0,-1.2441 -1.7268,-1.7269 -4.4376,-1.7269 z m 9.104,1.8939 0,5.8493 c 0,1.7268 0.7986,3.0081 3.0269,3.0081 1.8195,0 2.321,-0.9842 2.321,-2.8596 l 0,-5.9978 1.7456,0 0,6.3691 c 0,2.5438 -0.7986,4.178 -3.5283,4.178 -1.6895,0 -2.9336,-0.7242 -3.5652,-1.7643 l 0,5.6268 -1.7453,0 0,-14.4096 z m 15.5104,0 0,4.7721 3.825,0 c 2.7482,0 4.6979,1.5415 4.6979,4.5125 0,2.9894 -1.9681,4.4747 -4.6604,4.4747 l -5.7008,0 0,-13.7593 z m 0,12.107 3.6952,0 c 1.8754,0 2.9526,-0.9286 2.9526,-2.8783 0,-1.9312 -1.1143,-2.8783 -2.8041,-2.8783 l -3.8437,0 z m 18.0731,-7.372 c 0.167,2.7484 -0.4272,5.8121 -4.0666,5.8121 -3.2309,0 -4.9022,-2.4511 -4.9022,-5.3663 0,-2.9897 1.504,-5.3665 4.6051,-5.3665 1.8567,0 3.5093,0.7058 4.5865,2.3768 l -1.1699,0.91 c -0.8727,-1.1883 -1.7642,-1.7085 -3.2683,-1.7085 -1.8938,0 -2.8409,1.4114 -2.9523,3.3424 z m -7.0934,1.5227 c 0.2973,1.5599 1.2625,2.674 2.9526,2.674 1.2625,0 2.3952,-0.6313 2.3952,-2.674 z m 10.8867,-6.2577 0,5.5706 c 0,1.7456 0.9842,2.9526 3.7511,3.2122 l -0.3342,1.7272 c -1.8757,-0.2228 -2.8412,-0.9842 -3.5283,-2.1728 l -0.4084,1.9871 -1.2257,-0.1485 0,-10.1758 z m 6.319,0 1.7453,0 0,8.7088 3.1195,0 0,1.5968 -3.1195,0 0,0.9471 c 0,1.0213 0.3716,1.7827 1.671,1.7827 0.5945,0 1.1699,-0.0559 1.6529,-0.1673 l 0.3342,1.5784 c -0.557,0.1485 -1.2812,0.2415 -1.9871,0.2415 -2.1537,0 -3.4163,-1.1699 -3.4163,-3.3979 l 0,-0.9845 -2.0239,0 0,-1.5968 2.0239,0 z m 9.8841,-0.2041 c 3.0822,0 4.9578,2.3397 4.9578,5.3849 0,3.0266 -1.8756,5.3663 -4.9578,5.3663 -3.0826,0 -4.9578,-2.3397 -4.9578,-5.3663 0,-3.0452 1.8752,-5.3849 4.9578,-5.3849 z m 0,1.6154 c -2.0429,0 -3.1753,1.6526 -3.1753,3.7508 0,2.0982 1.1324,3.714 3.1753,3.714 2.0424,0 3.1751,-1.6158 3.1751,-3.714 0,-2.0982 -1.1327,-3.7508 -3.1751,-3.7508 z m 8.3985,-1.4113 0,5.5706 c 0,1.7456 0.9842,2.9526 3.7511,3.2122 l -0.3342,1.7272 c -1.8757,-0.2228 -2.8412,-0.9842 -3.5283,-2.1728 l -0.4084,1.9871 -1.2257,-0.1485 0,-10.1758 z m 6.9316,0 0,5.8493 c 0,1.7268 0.6871,3.0081 2.9154,3.0081 1.8196,0 2.2096,-0.9842 2.2096,-2.8596 l 0,-5.9978 1.7456,0 0,5.8493 c 0,1.7268 0.6871,3.0081 2.9154,3.0081 1.8196,0 2.1912,-0.9842 2.1912,-2.8596 l 0,-5.9978 1.7637,0 0,6.3691 c 0,2.5438 -0.6871,4.178 -3.4166,4.178 -1.8941,0 -3.268,-0.9842 -3.7879,-2.2283 -0.3342,1.0397 -0.7614,2.2283 -3.0824,2.2283 -1.6897,0 -3.0265,-0.7611 -3.6023,-2.0239 l -0.3529,1.8011 -1.2441,-0.1485 0,-10.1758 z m 22.1581,5.8305 c -0.9283,0.1857 -1.7827,0.2603 -2.6552,0.2603 -2.7853,0 -4.3268,-1.2813 -4.3268,-3.2497 0,-1.6713 1.04,-3.0081 3.2868,-3.0081 2.1353,0 3.3239,0.9839 3.8066,2.0239 l 0.0556,-0.5941 c 0.093,-0.9842 0.5014,-1.3555 1.4114,-1.3555 0.4084,0 0.8912,0.0742 1.4298,0.2412 l 0,1.2073 -1.2813,0 0,4.8832 c 0,2.9526 -0.9471,4.3268 -3.6023,4.3268 -1.7643,0 -3.0452,-0.483 -3.9367,-1.0029 l 0.7616,-1.4485 c 0.6685,0.3716 1.6339,0.7617 2.9708,0.7617 1.8382,0 2.0797,-1.1886 2.0797,-2.804 z m 0,-1.8566 c 0,-1.2629 -0.9283,-2.5813 -3.3236,-2.5813 -1.2444,0 -1.9128,0.5202 -1.9128,1.5599 0,1.2442 1.1698,1.8012 3.1938,1.8012 0.65,0 1.3184,-0.093 2.0426,-0.2228 z m 6.0591,-3.9739 0,5.8493 c 0,1.7268 0.7985,3.0081 3.0265,3.0081 1.8199,0 2.321,-0.9842 2.321,-2.8596 l 0,-5.9978 1.7456,0 0,6.3691 c 0,2.5438 -0.7982,4.178 -3.528,4.178 -1.6897,0 -3.1379,-0.7611 -3.7136,-2.0239 l -0.353,1.8011 -1.2438,-0.1485 0,-10.1758 z m 13.3934,-0.167 c 2.0427,0 3.5838,0.9471 4.5493,2.7482 l -1.3742,0.7982 c -0.8354,-1.4111 -1.7082,-1.9681 -3.0637,-1.9681 -2.0424,0 -3.0081,1.6526 -3.0081,3.7508 0,2.0982 1.0213,3.714 2.9154,3.714 1.4669,0 2.2839,-0.6687 2.8038,-1.5415 l 1.4485,0.8912 c -0.8173,1.4114 -2.0427,2.3213 -4.1967,2.3213 -3.0824,0 -4.7719,-2.4511 -4.7719,-5.3663 0,-2.9897 1.5409,-5.3478 4.6976,-5.3478 z m 14.1367,4.902 c 0.1669,2.7484 -0.4272,5.8121 -4.0666,5.8121 -3.2309,0 -4.9023,-2.4511 -4.9023,-5.3663 0,-2.9897 1.5041,-5.3665 4.6049,-5.3665 1.857,0 3.5096,0.7058 4.5868,2.3768 l -1.1699,0.91 c -0.8731,-1.1883 -1.7643,-1.7085 -3.2683,-1.7085 -1.8939,0 -2.8409,1.4114 -2.9523,3.3424 z m -7.0935,1.5227 c 0.2971,1.5599 1.2626,2.674 2.9526,2.674 1.2626,0 2.3953,-0.6313 2.3953,-2.674 z m 19.02,-6.4618 c 3.1379,0 4.9577,1.6339 5.9048,3.6765 l -1.5228,0.7614 c -0.7242,-1.4669 -1.7453,-2.7666 -4.1967,-2.7666 -2.4324,0 -4.5306,1.6894 -4.5306,5.3475 0,3.7511 2.2096,5.4406 4.4938,5.4406 1.6155,0 3.0265,-0.6684 3.9549,-1.9681 l 1.4301,1.0769 c -1.1515,1.7084 -3.231,2.6367 -5.3295,2.6367 -3.4165,0 -6.4063,-2.5253 -6.4063,-7.2416 0,-4.4938 2.7669,-6.9633 6.2023,-6.9633 z m 11.7408,0 c 3.0824,0 4.9578,2.3397 4.9578,5.3849 0,3.0266 -1.8754,5.3663 -4.9578,5.3663 -3.0824,0 -4.9578,-2.3397 -4.9578,-5.3663 0,-3.0452 1.8754,-5.3849 4.9578,-5.3849 z m 0,1.6154 c -2.0427,0 -3.1751,1.6526 -3.1751,3.7508 0,2.0982 1.1324,3.714 3.1751,3.714 2.0426,0 3.1753,-1.6158 3.1753,-3.714 0,-2.0982 -1.1327,-3.7508 -3.1753,-3.7508 z m 8.38,-1.4113 0,5.8493 c 0,1.7268 0.6872,3.0081 2.9155,3.0081 1.8195,0 2.2096,-0.9842 2.2096,-2.8596 l 0,-5.9978 1.7453,0 0,5.8493 c 0,1.7268 0.6871,3.0081 2.9154,3.0081 1.8198,0 2.1912,-0.9842 2.1912,-2.8596 l 0,-5.9978 1.764,0 0,6.3691 c 0,2.5438 -0.6871,4.178 -3.4166,4.178 -1.8941,0 -3.2681,-0.9842 -3.7882,-2.2283 -0.3342,1.0397 -0.7611,2.2283 -3.0824,2.2283 -1.6895,0 -3.0266,-0.7611 -3.6023,-2.0239 l -0.3529,1.8011 -1.2439,-0.1485 0,-10.1758 z m 17.5714,-3.0637 0,4.9022 c 0.7243,-1.1885 1.9497,-2.0055 3.6766,-2.0055 3.0084,0 4.3823,2.4324 4.3823,5.3478 0,2.9152 -1.2625,5.3663 -4.1595,5.3663 -1.8751,0 -3.2865,-0.947 -4.0108,-2.2839 l -0.3897,2.0611 -1.2442,-0.1485 0,-13.2395 z m 3.4725,4.475 c -2.1538,0 -3.4725,1.467 -3.4725,3.7324 0,2.2468 1.4301,3.7324 3.4725,3.7324 2.0423,0 2.7853,-1.6529 2.7853,-3.7324 0,-2.0611 -0.743,-3.7324 -2.7853,-3.7324 z m 9.7171,-1.597 c 1.6526,0 3.1009,0.7058 3.6766,1.9684 l 0.3526,-1.8754 1.2441,0.1672 0,10.2311 -1.7637,0 0,-5.9048 c 0,-1.7269 -0.7617,-3.0082 -2.9713,-3.0082 -1.8195,0 -2.3025,0.9842 -2.3025,2.8783 l 0,6.0347 -1.7638,0 0,-6.3505 c 0,-2.5438 0.7611,-4.1408 3.528,-4.1408 z m 8.4172,2.8227 c 0,-1.8569 0.6126,-2.7853 2.5254,-2.7853 1.2067,0 2.2096,0.3711 3.0266,0.8354 l -0.6313,1.3926 c -0.5757,-0.2783 -1.2628,-0.557 -2.0055,-0.557 -1.0585,0 -1.1514,0.4456 -1.1514,1.4485 l 0,5.7376 3.1382,0 0,1.5968 -3.1382,0 0,3.2309 -1.3553,-0.3897 -0.3529,-2.8412 -2.0424,0 0,-1.5968 1.9868,0 z m 8.7327,8.8943 0,2.1166 -1.8198,0 0,-2.1166 z m -0.0371,-11.5313 0,10.3056 -1.7453,0 0,-10.3056 z m 4.0348,0 0,5.8493 c 0,1.7268 0.7986,3.0081 3.0269,3.0081 1.8195,0 2.321,-0.9842 2.321,-2.8596 l 0,-5.9978 1.7456,0 0,6.3691 c 0,2.5438 -0.7986,4.178 -3.5283,4.178 -1.6895,0 -3.138,-0.7611 -3.7137,-2.0239 l -0.3529,1.8011 -1.2439,-0.1485 0,-10.1758 z m 14.842,10.3614 c -0.5199,0.1302 -1.1325,0.1857 -1.6898,0.1857 -2.4324,0 -4.2151,-1.2625 -4.2151,-3.4724 0,-1.2442 0.5757,-2.1725 1.5228,-2.7482 -0.4828,-0.3901 -0.7801,-0.9097 -0.7801,-1.4298 0,-0.5199 0.2786,-1.0769 0.947,-1.3368 -1.5783,-0.2971 -2.4324,-1.2442 -2.4324,-2.4511 0,-1.4854 1.4298,-2.4325 4.178,-2.4325 4.735,0 6.2949,1.5412 6.2949,3.3237 0,1.8754 -1.597,2.4511 -5.1624,2.5625 -2.0053,0.0558 -2.2652,0.2228 -2.2652,0.7055 0,0.2228 0.1114,0.4272 0.2599,0.6316 0.5012,-0.1485 1.0585,-0.2228 1.6526,-0.2228 2.4883,0 4.2894,1.2067 4.2894,3.3607 0,1.2813 -0.5386,2.0798 -1.5412,2.6371 l -0.0184,0.0184 2.1166,0 -0.4269,1.6898 z m -1.6898,-5.2735 c -1.4856,0 -2.5254,0.6687 -2.5254,1.9681 0,1.2812 1.0398,1.9315 2.5254,1.9315 1.5599,0 2.581,-0.6503 2.581,-1.9315 0,-1.2994 -1.0211,-1.9681 -2.581,-1.9681 z m -0.6871,-6.9818 c -1.5596,0 -2.4508,0.4456 -2.4508,1.374 0,1.114 1.4295,1.6713 2.9151,1.6342 3.0453,-0.0746 3.9736,-0.3158 3.9736,-1.2813 0,-1.2441 -1.7268,-1.7269 -4.4379,-1.7269 z m 9.5128,1.8939 0,2.3584 -2.228,0 0,-2.3584 z m 14.7679,0 0,1.6341 -6.7779,0 0,12.1252 -1.8383,0 0,-13.7593 z m 3.1805,11.5313 0,2.1166 -1.8198,0 0,-2.1166 z m -0.0371,-11.5313 0,10.3056 -1.7453,0 0,-10.3056 z m 3.4038,0 1.7453,0 0,8.7088 3.1195,0 0,1.5968 -3.1195,0 0,0.9471 c 0,1.0213 0.3713,1.7827 1.671,1.7827 0.5945,0 1.1699,-0.0559 1.6529,-0.1673 l 0.3342,1.5784 c -0.557,0.1485 -1.2812,0.2415 -1.9871,0.2415 -2.1537,0 -3.4163,-1.1699 -3.4163,-3.3979 l 0,-0.9845 -2.0242,0 0,-1.5968 2.0242,0 z m 13.8949,4.735 c 0.1669,2.7484 -0.4272,5.8121 -4.0666,5.8121 -3.2309,0 -4.9022,-2.4511 -4.9022,-5.3663 0,-2.9897 1.504,-5.3665 4.6048,-5.3665 1.857,0 3.5096,0.7058 4.5868,2.3768 l -1.1699,0.91 c -0.873,-1.1883 -1.7643,-1.7085 -3.2683,-1.7085 -1.8939,0 -2.8409,1.4114 -2.9523,3.3424 z m -7.0934,1.5227 c 0.297,1.5599 1.2625,2.674 2.9522,2.674 1.2629,0 2.3956,-0.6313 2.3956,-2.674 z m 18.5368,-6.4805 c 2.9339,0 4.9765,1.6154 4.9765,3.8996 0,2.9894 -2.4511,3.602 -4.7721,4.1408 -1.8757,0.4269 -3.361,0.8725 -3.361,2.4324 0,1.1883 0.8543,2.024 2.7666,2.024 1.4856,0 2.7485,-0.4085 3.6952,-1.207 l 1.1143,1.3555 c -1.2257,1.0026 -2.6926,1.5596 -4.8279,1.5596 -2.8225,0 -4.5865,-1.5596 -4.5865,-3.7692 0,-2.8596 2.4324,-3.4537 4.8093,-4.0294 1.8569,-0.4456 3.3239,-0.8912 3.3239,-2.5254 0,-1.3556 -1.0213,-2.2096 -3.1567,-2.2096 -1.857,0 -3.3982,0.557 -4.4379,1.9125 l -1.3371,-1.0769 c 1.2073,-1.597 3.1938,-2.5069 5.7934,-2.5069 z m 10.8868,0.0558 c 2.0426,0 3.5838,0.9471 4.5496,2.7482 l -1.3742,0.7982 c -0.8357,-1.4111 -1.7085,-1.9681 -3.064,-1.9681 -2.0424,0 -3.0081,1.6526 -3.0081,3.7508 0,2.0982 1.0213,3.714 2.9154,3.714 1.4669,0 2.2839,-0.6687 2.8037,-1.5415 l 1.4485,0.8912 c -0.8172,1.4114 -2.0426,2.3213 -4.1967,2.3213 -3.0823,0 -4.7718,-2.4511 -4.7718,-5.3663 0,-2.9897 1.5409,-5.3478 4.6976,-5.3478 z m 7.8976,11.6983 0,2.1166 -1.8199,0 0,-2.1166 z m -0.0374,-11.5313 0,10.3056 -1.7453,0 0,-10.3056 z m 10.7569,4.735 c 0.1672,2.7484 -0.4269,5.8121 -4.0666,5.8121 -3.2309,0 -4.902,-2.4511 -4.902,-5.3663 0,-2.9897 1.5041,-5.3665 4.6049,-5.3665 1.857,0 3.5096,0.7058 4.5865,2.3768 l -1.1699,0.91 c -0.8728,-1.1883 -1.764,-1.7085 -3.268,-1.7085 -1.8941,0 -2.8412,1.4114 -2.9526,3.3424 z m -7.0931,1.5227 c 0.297,1.5599 1.2625,2.674 2.9522,2.674 1.2626,0 2.3953,-0.6313 2.3953,-2.674 z m 10.868,-6.2577 0,5.8493 c 0,1.7268 0.7985,3.0081 3.0268,3.0081 1.8196,0 2.321,-0.9842 2.321,-2.8596 l 0,-5.9978 1.7453,0 0,6.3691 c 0,2.5438 -0.7982,4.178 -3.528,4.178 -1.6894,0 -3.1379,-0.7611 -3.7137,-2.0239 l -0.3529,1.8011 -1.2438,-0.1485 0,-10.1758 z m 13.3934,-0.167 c 2.0426,0 3.5838,0.9471 4.5496,2.7482 l -1.3742,0.7982 c -0.8357,-1.4111 -1.7082,-1.9681 -3.064,-1.9681 -2.0424,0 -3.0081,1.6526 -3.0081,3.7508 0,2.0982 1.0213,3.714 2.9154,3.714 1.4669,0 2.2839,-0.6687 2.804,-1.5415 l 1.4483,0.8912 c -0.8173,1.4114 -2.0427,2.3213 -4.1964,2.3213 -3.0827,0 -4.7722,-2.4511 -4.7722,-5.3663 0,-2.9897 1.5412,-5.3478 4.6976,-5.3478 z m 14.1367,4.902 c 0.1672,2.7484 -0.4269,5.8121 -4.0666,5.8121 -3.231,0 -4.902,-2.4511 -4.902,-5.3663 0,-2.9897 1.5041,-5.3665 4.6049,-5.3665 1.857,0 3.5093,0.7058 4.5865,2.3768 l -1.1699,0.91 c -0.8728,-1.1883 -1.764,-1.7085 -3.2681,-1.7085 -1.8941,0 -2.8411,1.4114 -2.9525,3.3424 z m -7.0935,1.5227 c 0.2974,1.5599 1.2629,2.674 2.9526,2.674 1.2626,0 2.3953,-0.6313 2.3953,-2.674 z"
         inkscape:connector-curvature="0" /><path
         id="path22"
         style="fill:#58595b;fill-opacity:1;fill-rule:nonzero;stroke:none"
         d="m 120.8477,398.9154 c 4.0839,0 6.6711,1.9457 6.6711,4.9176 0,3.7204 -2.9934,4.426 -6.1792,4.8537 -2.2663,0.3209 -3.3568,0.6415 -3.3568,1.8389 0,0.9408 0.7055,1.4751 2.5231,1.4751 1.6461,0 3.4421,-0.513 4.4257,-1.2614 l 1.9245,2.6728 c -1.2189,0.9836 -3.1646,1.8601 -6.3933,1.8601 -3.4637,0 -6.1362,-1.5608 -6.1362,-4.8535 0,-3.6351 3.1003,-4.4476 6.2218,-4.875 2.245,-0.3206 3.3143,-0.6843 3.3143,-1.8601 0,-1.0052 -0.7912,-1.6251 -3.1218,-1.6251 -1.8176,0 -3.8702,0.5987 -5.324,1.8388 l -2.0311,-2.4162 c 1.6889,-1.5608 3.8699,-2.5657 7.4619,-2.5657 z m 19.5877,0 c 3.7205,0 8.2531,2.2666 8.2531,8.189 0,5.9015 -4.5326,8.1678 -8.2531,8.1678 -3.7204,0 -8.253,-2.2663 -8.253,-8.1678 0,-5.9224 4.5326,-8.189 8.253,-8.189 z m 0,3.2287 c -2.5443,0 -4.5544,1.8173 -4.5544,4.8963 0,3.0574 2.0101,4.875 4.5544,4.875 2.5444,0 4.5545,-1.8176 4.5545,-4.875 0,-3.079 -2.0101,-4.8963 -4.5545,-4.8963 z m 24.9543,-2.9721 0,3.1646 -7.5904,0 0,12.6791 -3.6561,0 0,-15.8437 z m 11.7405,-0.2994 c 5.495,0 7.2485,3.3999 7.2485,6.3717 l 0,9.7714 -3.5708,0 0,-9.3223 c 0,-2.2663 -1.0477,-3.5921 -3.6136,-3.5921 -2.63,0 -3.6562,1.4326 -3.6562,3.5921 l 0,9.3223 -3.6564,0 0,-9.7714 c 0,-2.9718 1.732,-6.3717 7.2485,-6.3717 z m 18.4329,-1.0902 0.7268,-0.428 c 0.9836,0.0856 1.8175,0.0215 1.8175,-0.684 0,-0.449 -0.3634,-0.7912 -1.2614,-0.7912 -0.5131,0 -1.2189,0.1497 -1.9032,0.4706 l -0.8549,-1.6038 c 0.7696,-0.4491 1.817,-0.7269 2.8434,-0.7269 2.0954,0 3.5493,0.8337 3.5493,2.4373 0,1.7319 -1.4967,2.2025 -2.7581,1.796 l 0.1284,0.7271 c 3.3352,0.1284 5.4737,1.7748 6.7351,4.3404 l -2.9509,1.4754 c -0.7908,-1.5182 -1.7316,-2.5871 -4.041,-2.5871 -2.3947,0 -4.1908,1.7104 -4.1908,4.8109 0,3.2712 1.9245,4.9391 4.1483,4.9391 1.8601,0 3.0146,-0.7483 3.9554,-1.9029 l 2.6728,2.181 c -1.4111,1.9454 -3.6561,3.0574 -6.3932,3.0574 -4.2977,0 -8.0822,-2.6728 -8.0822,-8.3389 0,-4.3617 2.5019,-7.2482 6.158,-7.8684 z m 18.3685,18.0029 c 0.7483,0.9195 1.347,1.2401 1.8175,1.2401 1.0049,0 1.4967,-1.1545 2.9506,-1.1545 1.2189,0 2.4803,0.9195 3.6777,2.3947 l -1.9457,1.6038 c -0.7484,-0.898 -1.283,-1.2404 -1.796,-1.2404 -0.9409,0 -1.4327,1.1548 -2.9506,1.1548 -1.2189,0 -2.4803,-0.898 -3.6992,-2.395 z m 3.3142,-16.8699 c 3.7205,0 8.2531,2.2666 8.2531,8.189 0,5.9015 -4.5326,8.1678 -8.2531,8.1678 -3.7204,0 -8.253,-2.2663 -8.253,-8.1678 0,-5.9224 4.5326,-8.189 8.253,-8.189 z m 0,3.2287 c -2.5444,0 -4.5544,1.8173 -4.5544,4.8963 0,3.0574 2.01,4.875 4.5544,4.875 2.5444,0 4.5545,-1.8176 4.5545,-4.875 0,-3.079 -2.0101,-4.8963 -4.5545,-4.8963 z m 25.3177,-2.9721 0,3.1646 -7.9538,0 0,3.2499 7.2482,0 0,3.143 -7.2482,0 0,2.9934 7.8682,0 0,3.2928 -11.5243,0 0,-15.8437 z m 11.9327,-0.2566 c 4.0841,0 6.6713,1.9457 6.6713,4.9176 0,3.7204 -2.9936,4.426 -6.1792,4.8537 -2.2666,0.3209 -3.3571,0.6415 -3.3571,1.8389 0,0.9408 0.7056,1.4751 2.5231,1.4751 1.6464,0 3.4424,-0.513 4.426,-1.2614 l 1.9242,2.6728 c -1.2186,0.9836 -3.1643,1.8601 -6.393,1.8601 -3.4639,0 -6.1364,-1.5608 -6.1364,-4.8535 0,-3.6351 3.1002,-4.4476 6.222,-4.875 2.2451,-0.3206 3.3143,-0.6843 3.3143,-1.8601 0,-1.0052 -0.7911,-1.6251 -3.1218,-1.6251 -1.8176,0 -3.8701,0.5987 -5.324,1.8388 l -2.031,-2.4162 c 1.6888,-1.5608 3.8695,-2.5657 7.4616,-2.5657 z m 31.1958,0.2566 0,15.8437 -3.6564,0 0,-15.8437 z m 10.0939,0 0,10.5412 7.5478,-10.5412 3.3996,0 0,15.8437 -3.4852,0 0,-9.7073 -6.9491,9.7073 -4.0195,0 0,-15.8437 z m 24.9543,0 0,12.5509 5.2812,0 0,3.2928 -14.2399,0 0,-3.2928 5.281,0 0,-12.5509 z m 21.9183,0 0,3.1646 -7.954,0 0,3.2499 7.2484,0 0,3.143 -7.2484,0 0,2.9934 7.8684,0 0,3.2928 -11.5246,0 0,-15.8437 z m 17.0858,0 0,3.1646 -7.5903,0 0,12.6791 -3.6561,0 0,-15.8437 z m 8.9396,0 0,15.8437 -3.6564,0 0,-15.8437 z m 12.6598,-0.235 c 3.0788,0 4.6823,1.5179 5.3238,2.8865 l 0.7271,-2.8225 2.0741,0.3206 0,8.2534 -7.0132,0 0,-2.7797 3.6989,0 c -0.2137,-1.347 -1.347,-2.7153 -3.7845,-2.7153 -2.5872,0 -4.2548,1.7961 -4.2548,5.0244 0,3.2074 2.0098,4.8323 4.2763,4.8323 1.7105,0 2.865,-0.8124 3.6562,-1.7533 l 2.6299,2.2879 c -1.2401,1.6251 -3.3355,2.8224 -6.2007,2.8224 -4.2761,0 -8.0606,-2.694 -8.0606,-8.3177 0,-5.11 3.2071,-8.039 6.9275,-8.039 z m 25.7239,0.235 0,3.1646 -7.9537,0 0,3.2499 7.2481,0 0,3.143 -7.2481,0 0,2.9934 7.8681,0 0,3.2928 -11.5246,0 0,-15.8437 z m 9.3458,0 0,10.5412 7.5478,-10.5412 3.3996,0 0,15.8437 -3.4852,0 0,-9.7073 -6.9491,9.7073 -4.0195,0 0,-15.8437 z m 24.9543,0 0,12.5509 5.2812,0 0,3.2928 -14.2399,0 0,-3.2928 5.281,0 0,-12.5509 z m 21.918,0 0,3.1646 -7.9537,0 0,3.2499 7.2482,0 0,3.143 -7.2482,0 0,2.9934 7.8681,0 0,3.2928 -11.5243,0 0,-15.8437 z m 11.9327,-0.2566 c 4.0842,0 6.6714,1.9457 6.6714,4.9176 0,3.7204 -2.9937,4.426 -6.1793,4.8537 -2.2666,0.3209 -3.3571,0.6415 -3.3571,1.8389 0,0.9408 0.7059,1.4751 2.5232,1.4751 1.6463,0 3.4424,-0.513 4.426,-1.2614 l 1.9241,2.6728 c -1.2186,0.9836 -3.1643,1.8601 -6.3929,1.8601 -3.464,0 -6.1365,-1.5608 -6.1365,-4.8535 0,-3.6351 3.1006,-4.4476 6.2221,-4.875 2.245,-0.3206 3.3142,-0.6843 3.3142,-1.8601 0,-1.0052 -0.7911,-1.6251 -3.1218,-1.6251 -1.8175,0 -3.8701,0.5987 -5.324,1.8388 l -2.031,-2.4162 c 1.6889,-1.5608 3.8698,-2.5657 7.4616,-2.5657"
         inkscape:connector-curvature="0" /></g></g></svg>