<?xml version="1.0" encoding="UTF-8" standalone="no"?>
<svg
   xmlns:dc="http://purl.org/dc/elements/1.1/"
   xmlns:cc="http://creativecommons.org/ns#"
   xmlns:rdf="http://www.w3.org/1999/02/22-rdf-syntax-ns#"
   xmlns:svg="http://www.w3.org/2000/svg"
   xmlns="http://www.w3.org/2000/svg"
   xmlns:sodipodi="http://sodipodi.sourceforge.net/DTD/sodipodi-0.dtd"
   xmlns:inkscape="http://www.inkscape.org/namespaces/inkscape"
   viewBox="0 0 220.00001 66.611102"
   height="66.611099"
   width="220"
   xml:space="preserve"
   id="svg2"
   version="1.1"
   inkscape:version="0.91 r13725"
   sodipodi:docname="sdc.svg"><sodipodi:namedview
     pagecolor="#ffffff"
     bordercolor="#666666"
     borderopacity="1"
     objecttolerance="10"
     gridtolerance="10"
     guidetolerance="10"
     inkscape:pageopacity="0"
     inkscape:pageshadow="2"
     inkscape:window-width="640"
     inkscape:window-height="480"
     id="namedview17"
     showgrid="false"
     inkscape:zoom="0.30655134"
     inkscape:cx="446.90714"
     inkscape:cy="135.31352"
     inkscape:current-layer="svg2"
     fit-margin-top="0"
     fit-margin-left="0"
     fit-margin-right="0"
     fit-margin-bottom="0" /><metadata
     id="metadata8"><rdf:RDF><cc:Work
         rdf:about=""><dc:format>image/svg+xml</dc:format><dc:type
           rdf:resource="http://purl.org/dc/dcmitype/StillImage" /><dc:title /></cc:Work></rdf:RDF></metadata><defs
     id="defs6" /><g
     transform="matrix(0.3281815,0,0,-0.3281815,-26.440369,129.42852)"
     id="g10"><g
       id="g12"><path
         id="path14"
         style="fill:#1d66c4;fill-opacity:1;fill-rule:evenodd;stroke:none"
         d="m 192.03,326.6481 -27.7864,-21.3443 -54.4467,0 -1.9148,-7.4591 56.3615,0 28.448,21.3424 545.8759,0 1.9134,7.461 -53.7078,0 z"
         inkscape:connector-curvature="0" /><path
         id="path16"
         style="fill:#1d66c4;fill-opacity:1;fill-rule:evenodd;stroke:none"
         d="m 174.1484,262.7867 -27.7869,-21.3412 -52.9543,0 -1.9142,-7.4611 54.8685,0 28.4485,21.3438 547.369,0 1.9139,7.4585 z"
         inkscape:connector-curvature="0" /><path
         id="path18"
         style="fill:#1d66c4;fill-opacity:1;fill-rule:evenodd;stroke:none"
         d="m 168.1877,241.5025 -27.7866,-21.3458 -52.4571,0 -1.9145,-7.461 54.3716,0 28.4483,21.3454 547.8667,0 1.915,7.4614 z"
         inkscape:connector-curvature="0" /><path
         id="path20"
         style="fill:#1d66c4;fill-opacity:1;fill-rule:evenodd;stroke:none"
         d="m 162.2254,220.2137 -27.7867,-21.3403 -51.9573,0 -1.9151,-7.4628 53.8724,0 28.4483,21.3417 548.3653,0 1.9156,7.4614 -318.1609,0 z"
         inkscape:connector-curvature="0" /><path
         id="path22"
         style="fill:#1d66c4;fill-opacity:1;fill-rule:evenodd;stroke:none"
         d="m 180.1089,284.0754 -27.7867,-21.3406 -53.4512,0 -1.9148,-7.4619 55.366,0 28.4483,21.3403 546.8703,0 1.9154,7.4622 z"
         inkscape:connector-curvature="0" /><path
         id="path24"
         style="fill:#1d66c4;fill-opacity:1;fill-rule:evenodd;stroke:none"
         d="m 203.9511,367.3485 -27.7869,-21.3423 -55.9222,0 -1.9137,-7.4596 57.8359,0 28.4485,21.3406 544.399,0 1.9154,7.4613 -47.7419,0 z"
         inkscape:connector-curvature="0" /><path
         id="path26"
         style="fill:#1d66c4;fill-opacity:1;fill-rule:evenodd;stroke:none"
         d="m 197.9909,347.9355 -27.7872,-21.3429 -54.9436,0 -1.9154,-7.4625 56.859,0 28.4488,21.3451 545.3782,0 1.9137,7.4603 -13.5834,0 z"
         inkscape:connector-curvature="0" /><path
         id="path28"
         style="fill:#1d66c4;fill-opacity:1;fill-rule:evenodd;stroke:none"
         d="m 186.0693,305.3628 -27.7867,-21.3429 -53.9484,0 -1.9153,-7.4625 55.8637,0 28.4488,21.3429 546.3726,0 1.9157,7.4625 z"
         inkscape:connector-curvature="0" /><path
         id="path30"
         style="fill:#2c2822;fill-opacity:1;fill-rule:evenodd;stroke:none"
         d="m 254.7028,394.3809 -41.6463,-162.2949 407.0381,0 41.6489,162.2949 z m 159.1986,-124.7466 -25.7083,0 11.9089,85.824 13.2327,0 c 28.3558,0 43.4795,-18.1462 43.4795,-40.8319 0,-22.307 -12.4778,-44.9921 -42.9128,-44.9921"
         inkscape:connector-curvature="0" /><path
         id="path32"
         style="fill:#ffffff;fill-opacity:1;fill-rule:evenodd;stroke:none"
         d="m 414.1375,270.0641 -25.4543,0 11.7913,84.9747 13.1014,0 c 28.0758,0 43.0492,-17.9674 43.0492,-40.4277 0,-22.0856 -12.3539,-44.547 -42.4876,-44.547 z m 149.4986,83.5653 c 11.223,-0.3931 21.0785,-2.4196 30.7004,-5.7537 l 5.3155,23.411 c -12.6088,3.6241 -23.2209,5.4921 -34.4441,5.8853 -40.5082,1.4145 -71.4296,-17.7075 -81.9263,-48.4163 -4.7305,23.9014 -22.2166,47.6212 -64.4647,47.6212 l -42.4862,0 -11.6629,-83.7247 c -5.5882,30.7083 -48.2462,34.0943 -48.2462,51.9205 0,8.7591 8.3695,14.599 18.6862,14.599 10.122,0 24.3321,-5.451 32.897,-11.6796 l 3.8936,23.3595 c -11.486,6.8122 -25.111,10.5097 -37.959,10.5097 -26.8617,0 -46.7158,-17.1286 -46.7158,-40.0969 0,-34.844 48.8582,-37.3739 48.8582,-59.3699 0,-8.7588 -7.5929,-14.5999 -19.0771,-14.5999 -11.0948,0 -26.862,5.8411 -37.5676,13.6239 l -4.282,-23.1628 c 11.8732,-7.7864 25.8891,-12.6524 45.1596,-12.6524 20.8273,0 34.505,9.428 40.8532,22.4215 l -2.6184,-18.7988 65.8823,0 c 26.4861,0 48.2111,16.6385 56.5704,41.898 5.9069,-25.5923 27.7971,-42.5797 58.4955,-43.6524 15.1529,-0.5301 29.2927,2.1603 45.246,8.5323 l 4.9204,28.2969 c -18.6947,-9.8354 -32.3195,-13.8538 -46.9094,-13.3456 -22.449,0.7858 -36.0116,14.5559 -35.2806,35.5065 0.6914,19.8284 15.1969,49.0972 56.162,47.6677"
         inkscape:connector-curvature="0" /></g></g></svg>